%TF.GenerationSoftware,KiCad,Pcbnew,9.0.3*%
%TF.CreationDate,2025-08-21T23:57:32+02:00*%
%TF.ProjectId,20250807_updi,32303235-3038-4303-975f-757064692e6b,rev?*%
%TF.SameCoordinates,Original*%
%TF.FileFunction,Copper,L2,Bot*%
%TF.FilePolarity,Positive*%
%FSLAX46Y46*%
G04 Gerber Fmt 4.6, Leading zero omitted, Abs format (unit mm)*
G04 Created by KiCad (PCBNEW 9.0.3) date 2025-08-21 23:57:32*
%MOMM*%
%LPD*%
G01*
G04 APERTURE LIST*
%TA.AperFunction,ComponentPad*%
%ADD10R,1.700000X1.700000*%
%TD*%
%TA.AperFunction,ComponentPad*%
%ADD11C,1.700000*%
%TD*%
%TA.AperFunction,HeatsinkPad*%
%ADD12O,1.000000X2.100000*%
%TD*%
%TA.AperFunction,HeatsinkPad*%
%ADD13O,1.000000X1.800000*%
%TD*%
%TA.AperFunction,ViaPad*%
%ADD14C,0.600000*%
%TD*%
%TA.AperFunction,Conductor*%
%ADD15C,0.800000*%
%TD*%
%TA.AperFunction,Conductor*%
%ADD16C,0.300000*%
%TD*%
%TA.AperFunction,Conductor*%
%ADD17C,0.200000*%
%TD*%
%TA.AperFunction,Conductor*%
%ADD18C,0.400000*%
%TD*%
%TA.AperFunction,Conductor*%
%ADD19C,0.500000*%
%TD*%
G04 APERTURE END LIST*
D10*
%TO.P,J8,1,Pin_1*%
%TO.N,UART_Tx*%
X222550000Y-96000000D03*
D11*
%TO.P,J8,2,Pin_2*%
%TO.N,UART_Rx*%
X220010000Y-96000000D03*
%TO.P,J8,3,Pin_3*%
%TO.N,GND*%
X217470000Y-96000000D03*
%TD*%
D10*
%TO.P,J3,1,Pin_1*%
%TO.N,VDD*%
X193000000Y-94160000D03*
D11*
%TO.P,J3,2,Pin_2*%
%TO.N,GND*%
X195540000Y-94160000D03*
%TD*%
D10*
%TO.P,J5,1,Pin_1*%
%TO.N,VDD*%
X238000000Y-94160000D03*
D11*
%TO.P,J5,2,Pin_2*%
%TO.N,GND*%
X240540000Y-94160000D03*
%TD*%
D12*
%TO.P,J1,S1,SHIELD*%
%TO.N,GND*%
X210640000Y-86800000D03*
D13*
X210640000Y-82620000D03*
D12*
X202000000Y-86800000D03*
D13*
X202000000Y-82620000D03*
%TD*%
D10*
%TO.P,J2,1,Pin_1*%
%TO.N,VDD*%
X193000000Y-84000000D03*
D11*
%TO.P,J2,2,Pin_2*%
%TO.N,GND*%
X195540000Y-84000000D03*
%TD*%
D10*
%TO.P,J7,1,Pin_1*%
%TO.N,+5V*%
X226900000Y-91900000D03*
D11*
%TO.P,J7,2,Pin_2*%
%TO.N,VDD*%
X229440000Y-91900000D03*
%TO.P,J7,3,Pin_3*%
%TO.N,+3.3V*%
X231980000Y-91900000D03*
%TD*%
D10*
%TO.P,J4,1,Pin_1*%
%TO.N,VDD*%
X238000000Y-84000000D03*
D11*
%TO.P,J4,2,Pin_2*%
%TO.N,GND*%
X240540000Y-84000000D03*
%TD*%
D10*
%TO.P,J6,1,Pin_1*%
%TO.N,UPDI*%
X204780000Y-96000000D03*
D11*
%TO.P,J6,2,Pin_2*%
%TO.N,VDD*%
X202240000Y-96000000D03*
%TO.P,J6,3,Pin_3*%
%TO.N,GND*%
X199700000Y-96000000D03*
%TD*%
D14*
%TO.N,D+*%
X205130000Y-86010000D03*
X206550000Y-85990000D03*
%TO.N,+5V*%
X219950000Y-82650000D03*
X214087498Y-91950000D03*
%TO.N,GND*%
X191400000Y-81200000D03*
X239400000Y-91950000D03*
X219690000Y-84600000D03*
X229800000Y-86050000D03*
X211040000Y-90860000D03*
X241450000Y-98250000D03*
X217000000Y-92450000D03*
X208430000Y-93150000D03*
X235100000Y-81800000D03*
X223600000Y-88550000D03*
X191550000Y-98750000D03*
X191450000Y-91250000D03*
X231900000Y-82350000D03*
X194550000Y-91150000D03*
X236600000Y-91950000D03*
X239400000Y-90100000D03*
X223600000Y-84200000D03*
X236600000Y-90100000D03*
%TO.N,VDD*%
X207800000Y-99050000D03*
X225500000Y-99050000D03*
X221250000Y-94000000D03*
%TO.N,UPDI_Tx*%
X217187502Y-90950000D03*
X210850000Y-96900000D03*
%TO.N,Net-(D1-A)*%
X217187502Y-89950000D03*
X211680000Y-93770000D03*
%TO.N,Net-(D4-A)*%
X214600000Y-88050000D03*
X229900000Y-97050000D03*
%TO.N,VBUS*%
X203900000Y-88450000D03*
X208700000Y-88500000D03*
%TD*%
D15*
%TO.N,VBUS*%
X208650000Y-88450000D02*
X208700000Y-88500000D01*
X203900000Y-88450000D02*
X208650000Y-88450000D01*
D16*
%TO.N,Net-(D1-A)*%
X211760000Y-93850000D02*
X211680000Y-93770000D01*
X213287502Y-93850000D02*
X211760000Y-93850000D01*
D17*
%TO.N,D+*%
X206530000Y-86010000D02*
X206550000Y-85990000D01*
X205130000Y-86010000D02*
X206530000Y-86010000D01*
D18*
%TO.N,+5V*%
X219008636Y-82650000D02*
X219950000Y-82650000D01*
X214087498Y-91950000D02*
X213899000Y-91761502D01*
X213899000Y-87759636D02*
X219008636Y-82650000D01*
X213899000Y-91761502D02*
X213899000Y-87759636D01*
D15*
%TO.N,VDD*%
X238000000Y-94160000D02*
X233061000Y-99099000D01*
X193000000Y-97450000D02*
X193000000Y-94160000D01*
X203349000Y-99099000D02*
X202240000Y-97990000D01*
D19*
X221250000Y-94000000D02*
X223152000Y-94000000D01*
D15*
X231700000Y-94160000D02*
X229440000Y-91900000D01*
D19*
X223950000Y-94798000D02*
X223950000Y-99099000D01*
D15*
X193000000Y-84000000D02*
X193000000Y-94160000D01*
X202240000Y-97990000D02*
X202240000Y-96000000D01*
X194350000Y-98800000D02*
X193000000Y-97450000D01*
X223950000Y-99099000D02*
X203349000Y-99099000D01*
X201550000Y-98800000D02*
X194350000Y-98800000D01*
X202240000Y-96000000D02*
X202240000Y-98110000D01*
D19*
X223152000Y-94000000D02*
X223950000Y-94798000D01*
D15*
X238000000Y-84000000D02*
X238000000Y-94160000D01*
X202240000Y-98110000D02*
X201550000Y-98800000D01*
X233061000Y-99099000D02*
X223950000Y-99099000D01*
X238000000Y-94160000D02*
X231700000Y-94160000D01*
D16*
%TO.N,UPDI_Tx*%
X217187502Y-90950000D02*
X211237502Y-96900000D01*
X211237502Y-96900000D02*
X210850000Y-96900000D01*
%TO.N,Net-(D1-A)*%
X217187502Y-89950000D02*
X213287502Y-93850000D01*
%TO.N,Net-(D4-A)*%
X220648000Y-88050000D02*
X229648000Y-97050000D01*
X229648000Y-97050000D02*
X229900000Y-97050000D01*
X214600000Y-88050000D02*
X220648000Y-88050000D01*
%TD*%
%TA.AperFunction,Conductor*%
%TO.N,GND*%
G36*
X242256922Y-80501280D02*
G01*
X242347266Y-80511459D01*
X242374331Y-80517636D01*
X242453540Y-80545352D01*
X242478553Y-80557398D01*
X242549606Y-80602043D01*
X242571313Y-80619355D01*
X242630644Y-80678686D01*
X242647957Y-80700395D01*
X242692600Y-80771444D01*
X242704648Y-80796462D01*
X242732362Y-80875666D01*
X242738540Y-80902735D01*
X242748720Y-80993076D01*
X242749500Y-81006961D01*
X242749500Y-98993038D01*
X242748720Y-99006922D01*
X242748720Y-99006923D01*
X242738540Y-99097264D01*
X242732362Y-99124333D01*
X242704648Y-99203537D01*
X242692600Y-99228555D01*
X242647957Y-99299604D01*
X242630644Y-99321313D01*
X242571313Y-99380644D01*
X242549604Y-99397957D01*
X242478555Y-99442600D01*
X242453537Y-99454648D01*
X242374333Y-99482362D01*
X242347264Y-99488540D01*
X242267075Y-99497576D01*
X242256921Y-99498720D01*
X242243038Y-99499500D01*
X234233362Y-99499500D01*
X234166323Y-99479815D01*
X234120568Y-99427011D01*
X234110624Y-99357853D01*
X234139649Y-99294297D01*
X234145681Y-99287819D01*
X237886680Y-95546818D01*
X237948003Y-95513333D01*
X237974361Y-95510499D01*
X238897871Y-95510499D01*
X238897872Y-95510499D01*
X238957483Y-95504091D01*
X239092331Y-95453796D01*
X239207546Y-95367546D01*
X239293796Y-95252331D01*
X239344091Y-95117483D01*
X239350500Y-95057873D01*
X239350499Y-95033979D01*
X239353330Y-95020963D01*
X239363940Y-95001525D01*
X239370179Y-94980275D01*
X239386803Y-94959643D01*
X239386808Y-94959636D01*
X239386811Y-94959634D01*
X239386818Y-94959626D01*
X240057037Y-94289408D01*
X240074075Y-94352993D01*
X240139901Y-94467007D01*
X240232993Y-94560099D01*
X240347007Y-94625925D01*
X240410590Y-94642962D01*
X239778282Y-95275269D01*
X239778282Y-95275270D01*
X239832449Y-95314624D01*
X240021782Y-95411095D01*
X240223870Y-95476757D01*
X240433754Y-95510000D01*
X240646246Y-95510000D01*
X240856127Y-95476757D01*
X240856130Y-95476757D01*
X241058217Y-95411095D01*
X241247554Y-95314622D01*
X241301716Y-95275270D01*
X241301717Y-95275270D01*
X240669408Y-94642962D01*
X240732993Y-94625925D01*
X240847007Y-94560099D01*
X240940099Y-94467007D01*
X241005925Y-94352993D01*
X241022962Y-94289408D01*
X241655270Y-94921717D01*
X241655270Y-94921716D01*
X241694622Y-94867554D01*
X241791095Y-94678217D01*
X241856757Y-94476130D01*
X241856757Y-94476127D01*
X241890000Y-94266246D01*
X241890000Y-94053753D01*
X241856757Y-93843872D01*
X241856757Y-93843869D01*
X241791095Y-93641782D01*
X241694624Y-93452449D01*
X241655270Y-93398282D01*
X241655269Y-93398282D01*
X241022962Y-94030590D01*
X241005925Y-93967007D01*
X240940099Y-93852993D01*
X240847007Y-93759901D01*
X240732993Y-93694075D01*
X240669409Y-93677037D01*
X241301716Y-93044728D01*
X241247550Y-93005375D01*
X241058217Y-92908904D01*
X240856129Y-92843242D01*
X240646246Y-92810000D01*
X240433754Y-92810000D01*
X240223872Y-92843242D01*
X240223869Y-92843242D01*
X240021782Y-92908904D01*
X239832439Y-93005380D01*
X239778282Y-93044727D01*
X239778282Y-93044728D01*
X240410591Y-93677037D01*
X240347007Y-93694075D01*
X240232993Y-93759901D01*
X240139901Y-93852993D01*
X240074075Y-93967007D01*
X240057037Y-94030591D01*
X239386818Y-93360372D01*
X239353333Y-93299049D01*
X239353330Y-93299036D01*
X239350499Y-93286015D01*
X239350499Y-93262128D01*
X239344091Y-93202517D01*
X239315926Y-93127002D01*
X239293798Y-93067673D01*
X239293793Y-93067664D01*
X239207547Y-92952455D01*
X239207544Y-92952452D01*
X239092335Y-92866206D01*
X239092329Y-92866203D01*
X238981166Y-92824741D01*
X238925233Y-92782869D01*
X238900816Y-92717405D01*
X238900500Y-92708559D01*
X238900500Y-85451439D01*
X238920185Y-85384400D01*
X238972989Y-85338645D01*
X238981168Y-85335257D01*
X239092326Y-85293798D01*
X239092326Y-85293797D01*
X239092331Y-85293796D01*
X239207546Y-85207546D01*
X239293796Y-85092331D01*
X239344091Y-84957483D01*
X239350500Y-84897873D01*
X239350499Y-84873979D01*
X239353330Y-84860963D01*
X239363940Y-84841525D01*
X239370179Y-84820275D01*
X239386803Y-84799643D01*
X239386808Y-84799636D01*
X239386811Y-84799634D01*
X239386818Y-84799626D01*
X240057037Y-84129408D01*
X240074075Y-84192993D01*
X240139901Y-84307007D01*
X240232993Y-84400099D01*
X240347007Y-84465925D01*
X240410590Y-84482962D01*
X239778282Y-85115269D01*
X239778282Y-85115270D01*
X239832449Y-85154624D01*
X240021782Y-85251095D01*
X240223870Y-85316757D01*
X240433754Y-85350000D01*
X240646246Y-85350000D01*
X240856127Y-85316757D01*
X240856130Y-85316757D01*
X241058217Y-85251095D01*
X241247554Y-85154622D01*
X241301716Y-85115270D01*
X241301717Y-85115270D01*
X240669408Y-84482962D01*
X240732993Y-84465925D01*
X240847007Y-84400099D01*
X240940099Y-84307007D01*
X241005925Y-84192993D01*
X241022962Y-84129408D01*
X241655270Y-84761717D01*
X241655270Y-84761716D01*
X241694622Y-84707554D01*
X241791095Y-84518217D01*
X241856757Y-84316130D01*
X241856757Y-84316127D01*
X241890000Y-84106246D01*
X241890000Y-83893753D01*
X241856757Y-83683872D01*
X241856757Y-83683869D01*
X241791095Y-83481782D01*
X241694624Y-83292449D01*
X241655270Y-83238282D01*
X241655269Y-83238282D01*
X241022962Y-83870590D01*
X241005925Y-83807007D01*
X240940099Y-83692993D01*
X240847007Y-83599901D01*
X240732993Y-83534075D01*
X240669409Y-83517037D01*
X241301716Y-82884728D01*
X241247550Y-82845375D01*
X241058217Y-82748904D01*
X240856129Y-82683242D01*
X240646246Y-82650000D01*
X240433754Y-82650000D01*
X240223872Y-82683242D01*
X240223869Y-82683242D01*
X240021782Y-82748904D01*
X239832439Y-82845380D01*
X239778282Y-82884727D01*
X239778282Y-82884728D01*
X240410591Y-83517037D01*
X240347007Y-83534075D01*
X240232993Y-83599901D01*
X240139901Y-83692993D01*
X240074075Y-83807007D01*
X240057037Y-83870591D01*
X239386818Y-83200372D01*
X239353333Y-83139049D01*
X239353330Y-83139036D01*
X239350499Y-83126015D01*
X239350499Y-83102128D01*
X239344091Y-83042517D01*
X239315926Y-82967002D01*
X239293798Y-82907673D01*
X239293793Y-82907664D01*
X239207547Y-82792455D01*
X239207544Y-82792452D01*
X239092335Y-82706206D01*
X239092328Y-82706202D01*
X238957482Y-82655908D01*
X238957483Y-82655908D01*
X238897883Y-82649501D01*
X238897881Y-82649500D01*
X238897873Y-82649500D01*
X238897864Y-82649500D01*
X237102129Y-82649500D01*
X237102123Y-82649501D01*
X237042516Y-82655908D01*
X236907671Y-82706202D01*
X236907664Y-82706206D01*
X236792455Y-82792452D01*
X236792452Y-82792455D01*
X236706206Y-82907664D01*
X236706202Y-82907671D01*
X236655908Y-83042517D01*
X236649501Y-83102116D01*
X236649500Y-83102135D01*
X236649500Y-84897870D01*
X236649501Y-84897876D01*
X236655908Y-84957483D01*
X236706202Y-85092328D01*
X236706206Y-85092335D01*
X236792452Y-85207544D01*
X236792455Y-85207547D01*
X236907664Y-85293793D01*
X236907673Y-85293798D01*
X237018832Y-85335257D01*
X237074766Y-85377127D01*
X237099184Y-85442592D01*
X237099500Y-85451439D01*
X237099500Y-92708560D01*
X237079815Y-92775599D01*
X237027011Y-92821354D01*
X237018833Y-92824742D01*
X236907671Y-92866202D01*
X236907664Y-92866206D01*
X236792455Y-92952452D01*
X236792452Y-92952455D01*
X236706206Y-93067664D01*
X236706202Y-93067671D01*
X236664742Y-93178833D01*
X236622871Y-93234767D01*
X236557407Y-93259184D01*
X236548560Y-93259500D01*
X232788050Y-93259500D01*
X232721011Y-93239815D01*
X232675256Y-93187011D01*
X232665312Y-93117853D01*
X232694337Y-93054297D01*
X232715165Y-93035182D01*
X232859785Y-92930109D01*
X232859783Y-92930109D01*
X232859792Y-92930104D01*
X233010104Y-92779792D01*
X233010106Y-92779788D01*
X233010109Y-92779786D01*
X233135048Y-92607820D01*
X233135047Y-92607820D01*
X233135051Y-92607816D01*
X233231557Y-92418412D01*
X233297246Y-92216243D01*
X233330500Y-92006287D01*
X233330500Y-91793713D01*
X233297246Y-91583757D01*
X233231557Y-91381588D01*
X233135051Y-91192184D01*
X233135049Y-91192181D01*
X233135048Y-91192179D01*
X233010109Y-91020213D01*
X232859786Y-90869890D01*
X232687820Y-90744951D01*
X232498414Y-90648444D01*
X232498413Y-90648443D01*
X232498412Y-90648443D01*
X232296243Y-90582754D01*
X232296241Y-90582753D01*
X232296240Y-90582753D01*
X232134957Y-90557208D01*
X232086287Y-90549500D01*
X231873713Y-90549500D01*
X231825042Y-90557208D01*
X231663760Y-90582753D01*
X231461585Y-90648444D01*
X231272179Y-90744951D01*
X231100213Y-90869890D01*
X230949890Y-91020213D01*
X230824949Y-91192182D01*
X230820484Y-91200946D01*
X230772509Y-91251742D01*
X230704688Y-91268536D01*
X230638553Y-91245998D01*
X230599516Y-91200946D01*
X230595050Y-91192182D01*
X230470109Y-91020213D01*
X230319786Y-90869890D01*
X230147820Y-90744951D01*
X229958414Y-90648444D01*
X229958413Y-90648443D01*
X229958412Y-90648443D01*
X229756243Y-90582754D01*
X229756241Y-90582753D01*
X229756240Y-90582753D01*
X229594957Y-90557208D01*
X229546287Y-90549500D01*
X229333713Y-90549500D01*
X229285042Y-90557208D01*
X229123760Y-90582753D01*
X228921585Y-90648444D01*
X228732179Y-90744951D01*
X228560215Y-90869889D01*
X228446673Y-90983431D01*
X228385350Y-91016915D01*
X228315658Y-91011931D01*
X228259725Y-90970059D01*
X228242810Y-90939082D01*
X228193797Y-90807671D01*
X228193793Y-90807664D01*
X228107547Y-90692455D01*
X228107544Y-90692452D01*
X227992335Y-90606206D01*
X227992328Y-90606202D01*
X227857482Y-90555908D01*
X227857483Y-90555908D01*
X227797883Y-90549501D01*
X227797881Y-90549500D01*
X227797873Y-90549500D01*
X227797864Y-90549500D01*
X226002129Y-90549500D01*
X226002123Y-90549501D01*
X225942516Y-90555908D01*
X225807671Y-90606202D01*
X225807664Y-90606206D01*
X225692455Y-90692452D01*
X225692452Y-90692455D01*
X225606206Y-90807664D01*
X225606202Y-90807671D01*
X225555908Y-90942517D01*
X225549501Y-91002116D01*
X225549500Y-91002135D01*
X225549500Y-91732191D01*
X225529815Y-91799230D01*
X225477011Y-91844985D01*
X225407853Y-91854929D01*
X225344297Y-91825904D01*
X225337819Y-91819872D01*
X221062673Y-87544726D01*
X221046927Y-87534205D01*
X220956127Y-87473535D01*
X220937443Y-87465796D01*
X220837744Y-87424499D01*
X220837738Y-87424497D01*
X220712071Y-87399500D01*
X220712069Y-87399500D01*
X215549155Y-87399500D01*
X215482116Y-87379815D01*
X215436361Y-87327011D01*
X215426417Y-87257853D01*
X215455442Y-87194297D01*
X215461474Y-87187819D01*
X219262474Y-83386819D01*
X219289401Y-83372115D01*
X219315220Y-83355523D01*
X219321420Y-83354631D01*
X219323797Y-83353334D01*
X219350155Y-83350500D01*
X219524684Y-83350500D01*
X219572136Y-83359939D01*
X219601532Y-83372115D01*
X219716503Y-83419737D01*
X219871153Y-83450499D01*
X219871156Y-83450500D01*
X219871158Y-83450500D01*
X220028844Y-83450500D01*
X220028845Y-83450499D01*
X220183497Y-83419737D01*
X220329179Y-83359394D01*
X220460289Y-83271789D01*
X220571789Y-83160289D01*
X220659394Y-83029179D01*
X220719737Y-82883497D01*
X220750500Y-82728842D01*
X220750500Y-82571158D01*
X220750500Y-82571155D01*
X220750499Y-82571153D01*
X220719738Y-82416510D01*
X220719737Y-82416503D01*
X220700475Y-82370000D01*
X220659397Y-82270827D01*
X220659390Y-82270814D01*
X220571789Y-82139711D01*
X220571786Y-82139707D01*
X220460292Y-82028213D01*
X220460288Y-82028210D01*
X220329185Y-81940609D01*
X220329172Y-81940602D01*
X220183501Y-81880264D01*
X220183489Y-81880261D01*
X220028845Y-81849500D01*
X220028842Y-81849500D01*
X219871158Y-81849500D01*
X219871155Y-81849500D01*
X219716510Y-81880261D01*
X219716498Y-81880264D01*
X219572136Y-81940061D01*
X219524684Y-81949500D01*
X218939641Y-81949500D01*
X218804313Y-81976418D01*
X218804303Y-81976421D01*
X218676828Y-82029222D01*
X218562090Y-82105887D01*
X213354885Y-87313092D01*
X213280444Y-87424503D01*
X213278225Y-87427824D01*
X213278222Y-87427829D01*
X213225421Y-87555303D01*
X213225418Y-87555313D01*
X213198500Y-87690640D01*
X213198500Y-87690643D01*
X213198500Y-91692508D01*
X213198500Y-91830496D01*
X213198500Y-91830498D01*
X213198499Y-91830498D01*
X213225418Y-91965824D01*
X213225420Y-91965830D01*
X213278223Y-92093309D01*
X213278226Y-92093314D01*
X213295274Y-92118829D01*
X213313786Y-92163522D01*
X213317758Y-92183487D01*
X213317761Y-92183499D01*
X213378100Y-92329172D01*
X213378107Y-92329185D01*
X213465708Y-92460288D01*
X213465711Y-92460292D01*
X213523806Y-92518387D01*
X213557291Y-92579710D01*
X213552307Y-92649402D01*
X213523806Y-92693749D01*
X213054375Y-93163181D01*
X212993052Y-93196666D01*
X212966694Y-93199500D01*
X212292941Y-93199500D01*
X212225902Y-93179815D01*
X212205260Y-93163181D01*
X212190292Y-93148213D01*
X212190288Y-93148210D01*
X212059185Y-93060609D01*
X212059172Y-93060602D01*
X211913501Y-93000264D01*
X211913489Y-93000261D01*
X211758845Y-92969500D01*
X211758842Y-92969500D01*
X211601158Y-92969500D01*
X211601155Y-92969500D01*
X211446510Y-93000261D01*
X211446498Y-93000264D01*
X211300827Y-93060602D01*
X211300814Y-93060609D01*
X211169711Y-93148210D01*
X211169707Y-93148213D01*
X211058213Y-93259707D01*
X211058210Y-93259711D01*
X210970609Y-93390814D01*
X210970602Y-93390827D01*
X210910264Y-93536498D01*
X210910261Y-93536510D01*
X210879500Y-93691153D01*
X210879500Y-93848846D01*
X210910261Y-94003489D01*
X210910264Y-94003501D01*
X210970602Y-94149172D01*
X210970609Y-94149185D01*
X211058210Y-94280288D01*
X211058213Y-94280292D01*
X211169707Y-94391786D01*
X211169711Y-94391789D01*
X211300814Y-94479390D01*
X211300827Y-94479397D01*
X211446498Y-94539735D01*
X211446503Y-94539737D01*
X211601153Y-94570499D01*
X211601156Y-94570500D01*
X211601158Y-94570500D01*
X211758844Y-94570500D01*
X211758845Y-94570499D01*
X211913497Y-94539737D01*
X211976709Y-94513554D01*
X211985437Y-94509939D01*
X212032889Y-94500500D01*
X212417694Y-94500500D01*
X212484733Y-94520185D01*
X212530488Y-94572989D01*
X212540432Y-94642147D01*
X212511407Y-94705703D01*
X212505375Y-94712181D01*
X211133529Y-96084025D01*
X211072206Y-96117510D01*
X211021657Y-96117961D01*
X210928846Y-96099500D01*
X210928842Y-96099500D01*
X210771158Y-96099500D01*
X210771155Y-96099500D01*
X210616510Y-96130261D01*
X210616498Y-96130264D01*
X210470827Y-96190602D01*
X210470814Y-96190609D01*
X210339711Y-96278210D01*
X210339707Y-96278213D01*
X210228213Y-96389707D01*
X210228210Y-96389711D01*
X210140609Y-96520814D01*
X210140602Y-96520827D01*
X210080264Y-96666498D01*
X210080261Y-96666510D01*
X210049500Y-96821153D01*
X210049500Y-96978846D01*
X210080261Y-97133489D01*
X210080264Y-97133501D01*
X210140602Y-97279172D01*
X210140609Y-97279185D01*
X210228210Y-97410288D01*
X210228213Y-97410292D01*
X210339707Y-97521786D01*
X210339711Y-97521789D01*
X210470814Y-97609390D01*
X210470827Y-97609397D01*
X210576866Y-97653319D01*
X210616503Y-97669737D01*
X210771153Y-97700499D01*
X210771156Y-97700500D01*
X210771158Y-97700500D01*
X210928844Y-97700500D01*
X210928845Y-97700499D01*
X211083497Y-97669737D01*
X211229179Y-97609394D01*
X211303489Y-97559740D01*
X211348182Y-97541227D01*
X211427246Y-97525501D01*
X211545629Y-97476465D01*
X211563282Y-97464670D01*
X211563283Y-97464670D01*
X211644671Y-97410288D01*
X211652171Y-97405277D01*
X211849904Y-97207544D01*
X212077119Y-96980330D01*
X213256248Y-95801200D01*
X214213142Y-94844306D01*
X216517242Y-92540205D01*
X217290433Y-91767013D01*
X217351754Y-91733530D01*
X217353819Y-91733099D01*
X217420999Y-91719737D01*
X217566681Y-91659394D01*
X217697791Y-91571789D01*
X217809291Y-91460289D01*
X217896896Y-91329179D01*
X217957239Y-91183497D01*
X217988002Y-91028842D01*
X217988002Y-90871158D01*
X217988002Y-90871155D01*
X217988001Y-90871153D01*
X217987750Y-90869889D01*
X217957239Y-90716503D01*
X217901839Y-90582754D01*
X217896898Y-90570825D01*
X217896896Y-90570822D01*
X217896896Y-90570821D01*
X217862196Y-90518889D01*
X217841318Y-90452215D01*
X217859802Y-90384835D01*
X217862178Y-90381136D01*
X217896896Y-90329179D01*
X217957239Y-90183497D01*
X217988002Y-90028842D01*
X217988002Y-89871158D01*
X217988002Y-89871155D01*
X217988001Y-89871153D01*
X217957240Y-89716510D01*
X217957240Y-89716508D01*
X217957239Y-89716503D01*
X217957237Y-89716498D01*
X217896899Y-89570827D01*
X217896892Y-89570814D01*
X217809291Y-89439711D01*
X217809288Y-89439707D01*
X217697794Y-89328213D01*
X217697790Y-89328210D01*
X217566687Y-89240609D01*
X217566674Y-89240602D01*
X217421003Y-89180264D01*
X217420991Y-89180261D01*
X217266347Y-89149500D01*
X217266344Y-89149500D01*
X217108660Y-89149500D01*
X217108657Y-89149500D01*
X216954012Y-89180261D01*
X216954000Y-89180264D01*
X216808329Y-89240602D01*
X216808316Y-89240609D01*
X216677213Y-89328210D01*
X216677209Y-89328213D01*
X216565715Y-89439707D01*
X216565712Y-89439711D01*
X216478111Y-89570814D01*
X216478104Y-89570827D01*
X216417766Y-89716498D01*
X216417763Y-89716508D01*
X216404422Y-89783579D01*
X216372037Y-89845490D01*
X216370486Y-89847068D01*
X214831246Y-91386308D01*
X214823299Y-91390646D01*
X214817873Y-91397896D01*
X214793113Y-91407129D01*
X214769923Y-91419793D01*
X214760891Y-91419147D01*
X214752408Y-91422311D01*
X214726588Y-91416693D01*
X214700231Y-91414809D01*
X214691176Y-91408990D01*
X214684135Y-91407458D01*
X214655882Y-91386306D01*
X214635817Y-91366240D01*
X214602333Y-91304916D01*
X214599500Y-91278561D01*
X214599500Y-88968046D01*
X214619185Y-88901007D01*
X214671989Y-88855252D01*
X214699309Y-88846429D01*
X214728848Y-88840552D01*
X214833497Y-88819737D01*
X214979179Y-88759394D01*
X215036044Y-88721397D01*
X215102721Y-88700520D01*
X215104935Y-88700500D01*
X220327192Y-88700500D01*
X220394231Y-88720185D01*
X220414873Y-88736819D01*
X229233325Y-97555272D01*
X229233328Y-97555275D01*
X229314325Y-97609395D01*
X229314324Y-97609395D01*
X229343319Y-97628768D01*
X229362111Y-97644190D01*
X229389707Y-97671786D01*
X229389711Y-97671789D01*
X229520814Y-97759390D01*
X229520827Y-97759397D01*
X229666498Y-97819735D01*
X229666503Y-97819737D01*
X229821153Y-97850499D01*
X229821156Y-97850500D01*
X229821158Y-97850500D01*
X229978844Y-97850500D01*
X229978845Y-97850499D01*
X230133497Y-97819737D01*
X230279179Y-97759394D01*
X230410289Y-97671789D01*
X230521789Y-97560289D01*
X230609394Y-97429179D01*
X230669737Y-97283497D01*
X230700500Y-97128842D01*
X230700500Y-96971158D01*
X230700500Y-96971155D01*
X230700499Y-96971153D01*
X230689641Y-96916569D01*
X230669737Y-96816503D01*
X230647044Y-96761716D01*
X230609397Y-96670827D01*
X230609390Y-96670814D01*
X230521789Y-96539711D01*
X230521786Y-96539707D01*
X230410292Y-96428213D01*
X230410288Y-96428210D01*
X230279185Y-96340609D01*
X230279172Y-96340602D01*
X230133501Y-96280264D01*
X230133489Y-96280261D01*
X229978845Y-96249500D01*
X229978842Y-96249500D01*
X229821158Y-96249500D01*
X229818808Y-96249500D01*
X229751769Y-96229815D01*
X229731127Y-96213181D01*
X226980126Y-93462180D01*
X226946641Y-93400857D01*
X226951625Y-93331165D01*
X226993497Y-93275232D01*
X227058961Y-93250815D01*
X227067807Y-93250499D01*
X227797871Y-93250499D01*
X227797872Y-93250499D01*
X227857483Y-93244091D01*
X227992331Y-93193796D01*
X228107546Y-93107546D01*
X228193796Y-92992331D01*
X228242810Y-92860916D01*
X228284681Y-92804984D01*
X228350145Y-92780566D01*
X228418418Y-92795417D01*
X228446673Y-92816569D01*
X228560213Y-92930109D01*
X228732179Y-93055048D01*
X228732181Y-93055049D01*
X228732184Y-93055051D01*
X228921588Y-93151557D01*
X229123757Y-93217246D01*
X229333713Y-93250500D01*
X229465638Y-93250500D01*
X229532677Y-93270185D01*
X229553319Y-93286819D01*
X230320254Y-94053753D01*
X231000536Y-94734035D01*
X231125965Y-94859464D01*
X231273453Y-94958013D01*
X231321452Y-94977895D01*
X231437334Y-95025895D01*
X231598087Y-95057870D01*
X231611304Y-95060499D01*
X231611308Y-95060500D01*
X231611309Y-95060500D01*
X235526639Y-95060500D01*
X235593678Y-95080185D01*
X235639433Y-95132989D01*
X235649377Y-95202147D01*
X235620352Y-95265703D01*
X235614320Y-95272180D01*
X234124784Y-96761716D01*
X232724319Y-98162181D01*
X232662996Y-98195666D01*
X232636638Y-98198500D01*
X224824500Y-98198500D01*
X224757461Y-98178815D01*
X224711706Y-98126011D01*
X224700500Y-98074500D01*
X224700500Y-94724079D01*
X224671659Y-94579092D01*
X224671658Y-94579091D01*
X224671658Y-94579087D01*
X224647260Y-94520185D01*
X224615087Y-94442511D01*
X224615080Y-94442498D01*
X224532952Y-94319585D01*
X224493655Y-94280288D01*
X224428416Y-94215049D01*
X224267120Y-94053753D01*
X223630421Y-93417052D01*
X223630420Y-93417051D01*
X223591172Y-93390827D01*
X223538048Y-93355331D01*
X223507495Y-93334916D01*
X223507493Y-93334915D01*
X223507490Y-93334913D01*
X223370917Y-93278343D01*
X223370907Y-93278340D01*
X223225920Y-93249500D01*
X223225918Y-93249500D01*
X221554604Y-93249500D01*
X221507155Y-93240062D01*
X221483497Y-93230263D01*
X221483493Y-93230262D01*
X221483488Y-93230260D01*
X221328845Y-93199500D01*
X221328842Y-93199500D01*
X221171158Y-93199500D01*
X221171155Y-93199500D01*
X221016510Y-93230261D01*
X221016498Y-93230264D01*
X220870827Y-93290602D01*
X220870814Y-93290609D01*
X220739711Y-93378210D01*
X220739707Y-93378213D01*
X220628213Y-93489707D01*
X220628210Y-93489711D01*
X220540609Y-93620814D01*
X220540602Y-93620827D01*
X220480264Y-93766498D01*
X220480261Y-93766510D01*
X220449500Y-93921153D01*
X220449500Y-94078846D01*
X220480261Y-94233489D01*
X220480264Y-94233501D01*
X220540602Y-94379172D01*
X220540609Y-94379185D01*
X220628210Y-94510288D01*
X220628213Y-94510292D01*
X220664529Y-94546608D01*
X220698014Y-94607931D01*
X220693030Y-94677623D01*
X220651158Y-94733556D01*
X220585694Y-94757973D01*
X220533201Y-94749469D01*
X220533046Y-94749949D01*
X220529945Y-94748941D01*
X220529405Y-94748854D01*
X220528417Y-94748445D01*
X220528414Y-94748444D01*
X220528412Y-94748443D01*
X220326243Y-94682754D01*
X220326241Y-94682753D01*
X220326240Y-94682753D01*
X220164957Y-94657208D01*
X220116287Y-94649500D01*
X219903713Y-94649500D01*
X219855042Y-94657208D01*
X219693760Y-94682753D01*
X219491585Y-94748444D01*
X219302179Y-94844951D01*
X219130213Y-94969890D01*
X218979890Y-95120213D01*
X218854949Y-95292182D01*
X218850202Y-95301499D01*
X218802227Y-95352293D01*
X218734405Y-95369087D01*
X218668271Y-95346548D01*
X218629234Y-95301495D01*
X218624626Y-95292452D01*
X218585270Y-95238282D01*
X218585269Y-95238282D01*
X217952962Y-95870590D01*
X217935925Y-95807007D01*
X217870099Y-95692993D01*
X217777007Y-95599901D01*
X217662993Y-95534075D01*
X217599409Y-95517037D01*
X218231716Y-94884728D01*
X218177550Y-94845375D01*
X217988217Y-94748904D01*
X217786129Y-94683242D01*
X217576246Y-94650000D01*
X217363754Y-94650000D01*
X217153872Y-94683242D01*
X217153869Y-94683242D01*
X216951782Y-94748904D01*
X216762439Y-94845380D01*
X216708282Y-94884727D01*
X216708282Y-94884728D01*
X217340591Y-95517037D01*
X217277007Y-95534075D01*
X217162993Y-95599901D01*
X217069901Y-95692993D01*
X217004075Y-95807007D01*
X216987037Y-95870591D01*
X216354728Y-95238282D01*
X216354727Y-95238282D01*
X216315380Y-95292439D01*
X216218904Y-95481782D01*
X216153242Y-95683869D01*
X216153242Y-95683872D01*
X216120000Y-95893753D01*
X216120000Y-96106246D01*
X216153242Y-96316127D01*
X216153242Y-96316130D01*
X216218904Y-96518217D01*
X216315375Y-96707550D01*
X216354728Y-96761716D01*
X216987037Y-96129408D01*
X217004075Y-96192993D01*
X217069901Y-96307007D01*
X217162993Y-96400099D01*
X217277007Y-96465925D01*
X217340590Y-96482962D01*
X216708282Y-97115269D01*
X216708282Y-97115270D01*
X216762449Y-97154624D01*
X216951782Y-97251095D01*
X217153870Y-97316757D01*
X217363754Y-97350000D01*
X217576246Y-97350000D01*
X217786127Y-97316757D01*
X217786130Y-97316757D01*
X217988217Y-97251095D01*
X218177554Y-97154622D01*
X218231716Y-97115270D01*
X218231717Y-97115270D01*
X217599408Y-96482962D01*
X217662993Y-96465925D01*
X217777007Y-96400099D01*
X217870099Y-96307007D01*
X217935925Y-96192993D01*
X217952962Y-96129408D01*
X218585270Y-96761717D01*
X218585270Y-96761716D01*
X218624622Y-96707555D01*
X218629232Y-96698507D01*
X218677205Y-96647709D01*
X218745025Y-96630912D01*
X218811161Y-96653447D01*
X218850204Y-96698504D01*
X218854949Y-96707817D01*
X218979890Y-96879786D01*
X219130213Y-97030109D01*
X219302179Y-97155048D01*
X219302181Y-97155049D01*
X219302184Y-97155051D01*
X219491588Y-97251557D01*
X219693757Y-97317246D01*
X219903713Y-97350500D01*
X219903714Y-97350500D01*
X220116286Y-97350500D01*
X220116287Y-97350500D01*
X220326243Y-97317246D01*
X220528412Y-97251557D01*
X220717816Y-97155051D01*
X220889792Y-97030104D01*
X221003329Y-96916566D01*
X221064648Y-96883084D01*
X221134340Y-96888068D01*
X221190274Y-96929939D01*
X221207189Y-96960917D01*
X221256202Y-97092328D01*
X221256206Y-97092335D01*
X221342452Y-97207544D01*
X221342455Y-97207547D01*
X221457664Y-97293793D01*
X221457671Y-97293797D01*
X221592517Y-97344091D01*
X221592516Y-97344091D01*
X221599444Y-97344835D01*
X221652127Y-97350500D01*
X223075500Y-97350499D01*
X223142539Y-97370184D01*
X223188294Y-97422987D01*
X223199500Y-97474499D01*
X223199500Y-98074500D01*
X223179815Y-98141539D01*
X223127011Y-98187294D01*
X223075500Y-98198500D01*
X203773362Y-98198500D01*
X203706323Y-98178815D01*
X203685681Y-98162181D01*
X203176819Y-97653319D01*
X203143334Y-97591996D01*
X203140500Y-97565638D01*
X203140500Y-97060758D01*
X203149143Y-97031321D01*
X203155667Y-97001332D01*
X203159422Y-96996315D01*
X203160185Y-96993719D01*
X203176818Y-96973078D01*
X203192414Y-96957482D01*
X203233327Y-96916568D01*
X203294648Y-96883084D01*
X203364340Y-96888068D01*
X203420273Y-96929939D01*
X203437189Y-96960917D01*
X203486202Y-97092328D01*
X203486206Y-97092335D01*
X203572452Y-97207544D01*
X203572455Y-97207547D01*
X203687664Y-97293793D01*
X203687671Y-97293797D01*
X203822517Y-97344091D01*
X203822516Y-97344091D01*
X203829444Y-97344835D01*
X203882127Y-97350500D01*
X205677872Y-97350499D01*
X205737483Y-97344091D01*
X205872331Y-97293796D01*
X205987546Y-97207546D01*
X206073796Y-97092331D01*
X206124091Y-96957483D01*
X206130500Y-96897873D01*
X206130499Y-95102128D01*
X206124091Y-95042517D01*
X206122810Y-95039083D01*
X206073797Y-94907671D01*
X206073793Y-94907664D01*
X205987547Y-94792455D01*
X205987544Y-94792452D01*
X205872335Y-94706206D01*
X205872328Y-94706202D01*
X205737482Y-94655908D01*
X205737483Y-94655908D01*
X205677883Y-94649501D01*
X205677881Y-94649500D01*
X205677873Y-94649500D01*
X205677864Y-94649500D01*
X203882129Y-94649500D01*
X203882123Y-94649501D01*
X203822516Y-94655908D01*
X203687671Y-94706202D01*
X203687664Y-94706206D01*
X203572455Y-94792452D01*
X203572452Y-94792455D01*
X203486206Y-94907664D01*
X203486203Y-94907669D01*
X203437189Y-95039083D01*
X203395317Y-95095016D01*
X203329853Y-95119433D01*
X203261580Y-95104581D01*
X203233326Y-95083430D01*
X203119786Y-94969890D01*
X202947820Y-94844951D01*
X202758414Y-94748444D01*
X202758413Y-94748443D01*
X202758412Y-94748443D01*
X202556243Y-94682754D01*
X202556241Y-94682753D01*
X202556240Y-94682753D01*
X202394957Y-94657208D01*
X202346287Y-94649500D01*
X202133713Y-94649500D01*
X202085042Y-94657208D01*
X201923760Y-94682753D01*
X201721585Y-94748444D01*
X201532179Y-94844951D01*
X201360213Y-94969890D01*
X201209890Y-95120213D01*
X201084949Y-95292182D01*
X201080202Y-95301499D01*
X201032227Y-95352293D01*
X200964405Y-95369087D01*
X200898271Y-95346548D01*
X200859234Y-95301495D01*
X200854626Y-95292452D01*
X200815270Y-95238282D01*
X200815269Y-95238282D01*
X200182962Y-95870590D01*
X200165925Y-95807007D01*
X200100099Y-95692993D01*
X200007007Y-95599901D01*
X199892993Y-95534075D01*
X199829409Y-95517037D01*
X200461716Y-94884728D01*
X200407550Y-94845375D01*
X200218217Y-94748904D01*
X200016129Y-94683242D01*
X199806246Y-94650000D01*
X199593754Y-94650000D01*
X199383872Y-94683242D01*
X199383869Y-94683242D01*
X199181782Y-94748904D01*
X198992439Y-94845380D01*
X198938282Y-94884727D01*
X198938282Y-94884728D01*
X199570591Y-95517037D01*
X199507007Y-95534075D01*
X199392993Y-95599901D01*
X199299901Y-95692993D01*
X199234075Y-95807007D01*
X199217037Y-95870591D01*
X198584728Y-95238282D01*
X198584727Y-95238282D01*
X198545380Y-95292439D01*
X198448904Y-95481782D01*
X198383242Y-95683869D01*
X198383242Y-95683872D01*
X198350000Y-95893753D01*
X198350000Y-96106246D01*
X198383242Y-96316127D01*
X198383242Y-96316130D01*
X198448904Y-96518217D01*
X198545375Y-96707550D01*
X198584728Y-96761716D01*
X199217037Y-96129408D01*
X199234075Y-96192993D01*
X199299901Y-96307007D01*
X199392993Y-96400099D01*
X199507007Y-96465925D01*
X199570590Y-96482962D01*
X198938282Y-97115269D01*
X198938282Y-97115270D01*
X198992449Y-97154624D01*
X199181782Y-97251095D01*
X199383870Y-97316757D01*
X199593754Y-97350000D01*
X199806246Y-97350000D01*
X200016127Y-97316757D01*
X200016130Y-97316757D01*
X200218217Y-97251095D01*
X200407554Y-97154622D01*
X200461716Y-97115270D01*
X200461717Y-97115270D01*
X199829408Y-96482962D01*
X199892993Y-96465925D01*
X200007007Y-96400099D01*
X200100099Y-96307007D01*
X200165925Y-96192993D01*
X200182962Y-96129409D01*
X200815270Y-96761717D01*
X200815270Y-96761716D01*
X200854622Y-96707555D01*
X200859232Y-96698507D01*
X200907205Y-96647709D01*
X200975025Y-96630912D01*
X201041161Y-96653447D01*
X201080204Y-96698504D01*
X201084949Y-96707817D01*
X201209890Y-96879786D01*
X201303181Y-96973077D01*
X201336666Y-97034400D01*
X201339500Y-97060758D01*
X201339500Y-97685638D01*
X201330855Y-97715078D01*
X201324332Y-97745065D01*
X201320577Y-97750080D01*
X201319815Y-97752677D01*
X201303181Y-97773319D01*
X201213319Y-97863181D01*
X201151996Y-97896666D01*
X201125638Y-97899500D01*
X194774361Y-97899500D01*
X194707322Y-97879815D01*
X194686680Y-97863181D01*
X193979192Y-97155692D01*
X193936819Y-97113319D01*
X193903334Y-97051996D01*
X193900500Y-97025638D01*
X193900500Y-95611439D01*
X193920185Y-95544400D01*
X193972989Y-95498645D01*
X193981168Y-95495257D01*
X194092326Y-95453798D01*
X194092326Y-95453797D01*
X194092331Y-95453796D01*
X194207546Y-95367546D01*
X194293796Y-95252331D01*
X194344091Y-95117483D01*
X194350500Y-95057873D01*
X194350499Y-95033979D01*
X194353330Y-95020963D01*
X194363940Y-95001525D01*
X194370179Y-94980275D01*
X194386803Y-94959643D01*
X194386808Y-94959636D01*
X194386811Y-94959634D01*
X194386818Y-94959626D01*
X195057037Y-94289408D01*
X195074075Y-94352993D01*
X195139901Y-94467007D01*
X195232993Y-94560099D01*
X195347007Y-94625925D01*
X195410590Y-94642962D01*
X194778282Y-95275269D01*
X194778282Y-95275270D01*
X194832449Y-95314624D01*
X195021782Y-95411095D01*
X195223870Y-95476757D01*
X195433754Y-95510000D01*
X195646246Y-95510000D01*
X195856127Y-95476757D01*
X195856130Y-95476757D01*
X196058217Y-95411095D01*
X196247554Y-95314622D01*
X196301716Y-95275270D01*
X196301717Y-95275270D01*
X195669408Y-94642962D01*
X195732993Y-94625925D01*
X195847007Y-94560099D01*
X195940099Y-94467007D01*
X196005925Y-94352993D01*
X196022962Y-94289408D01*
X196655270Y-94921717D01*
X196655270Y-94921716D01*
X196694622Y-94867554D01*
X196791095Y-94678217D01*
X196856757Y-94476130D01*
X196856757Y-94476127D01*
X196890000Y-94266246D01*
X196890000Y-94053753D01*
X196856757Y-93843872D01*
X196856757Y-93843869D01*
X196791095Y-93641782D01*
X196694624Y-93452449D01*
X196655270Y-93398282D01*
X196655269Y-93398282D01*
X196022962Y-94030590D01*
X196005925Y-93967007D01*
X195940099Y-93852993D01*
X195847007Y-93759901D01*
X195732993Y-93694075D01*
X195669409Y-93677037D01*
X196301716Y-93044728D01*
X196247550Y-93005375D01*
X196058217Y-92908904D01*
X195856129Y-92843242D01*
X195646246Y-92810000D01*
X195433754Y-92810000D01*
X195223872Y-92843242D01*
X195223869Y-92843242D01*
X195021782Y-92908904D01*
X194832439Y-93005380D01*
X194778282Y-93044727D01*
X194778282Y-93044728D01*
X195410591Y-93677037D01*
X195347007Y-93694075D01*
X195232993Y-93759901D01*
X195139901Y-93852993D01*
X195074075Y-93967007D01*
X195057037Y-94030591D01*
X194386818Y-93360372D01*
X194353333Y-93299049D01*
X194353330Y-93299036D01*
X194350499Y-93286015D01*
X194350499Y-93262128D01*
X194344091Y-93202517D01*
X194315926Y-93127002D01*
X194293798Y-93067673D01*
X194293793Y-93067664D01*
X194207547Y-92952455D01*
X194207544Y-92952452D01*
X194092335Y-92866206D01*
X194092329Y-92866203D01*
X193981166Y-92824741D01*
X193925233Y-92782869D01*
X193900816Y-92717405D01*
X193900500Y-92708559D01*
X193900500Y-88361304D01*
X202999500Y-88361304D01*
X202999500Y-88538695D01*
X203034103Y-88712658D01*
X203034106Y-88712667D01*
X203101983Y-88876540D01*
X203101990Y-88876553D01*
X203200535Y-89024034D01*
X203200538Y-89024038D01*
X203325961Y-89149461D01*
X203325965Y-89149464D01*
X203473446Y-89248009D01*
X203473459Y-89248016D01*
X203594155Y-89298009D01*
X203637334Y-89315894D01*
X203637336Y-89315894D01*
X203637341Y-89315896D01*
X203811304Y-89350499D01*
X203811307Y-89350500D01*
X203811309Y-89350500D01*
X208375502Y-89350500D01*
X208422954Y-89359939D01*
X208437329Y-89365893D01*
X208437334Y-89365895D01*
X208611304Y-89400499D01*
X208611308Y-89400500D01*
X208611309Y-89400500D01*
X208788693Y-89400500D01*
X208788694Y-89400499D01*
X208962666Y-89365895D01*
X209126547Y-89298013D01*
X209274036Y-89199464D01*
X209399464Y-89074036D01*
X209498013Y-88926547D01*
X209565895Y-88762666D01*
X209600500Y-88588692D01*
X209600500Y-88411309D01*
X209565895Y-88237334D01*
X209498013Y-88073454D01*
X209498011Y-88073451D01*
X209498009Y-88073447D01*
X209399464Y-87925965D01*
X209399461Y-87925961D01*
X209224041Y-87750540D01*
X209224040Y-87750539D01*
X209224036Y-87750536D01*
X209164959Y-87711063D01*
X209076547Y-87651987D01*
X208994606Y-87618046D01*
X208927042Y-87590060D01*
X208912666Y-87584105D01*
X208912658Y-87584103D01*
X208738696Y-87549500D01*
X208738692Y-87549500D01*
X208738691Y-87549500D01*
X203811309Y-87549500D01*
X203811306Y-87549500D01*
X203637341Y-87584103D01*
X203637332Y-87584106D01*
X203473459Y-87651983D01*
X203473446Y-87651990D01*
X203325965Y-87750535D01*
X203325961Y-87750538D01*
X203200538Y-87875961D01*
X203200535Y-87875965D01*
X203101990Y-88023446D01*
X203101983Y-88023459D01*
X203034106Y-88187332D01*
X203034103Y-88187341D01*
X202999500Y-88361304D01*
X193900500Y-88361304D01*
X193900500Y-86151504D01*
X201000000Y-86151504D01*
X201000000Y-86550000D01*
X201700000Y-86550000D01*
X201700000Y-87050000D01*
X201000000Y-87050000D01*
X201000000Y-87448495D01*
X201038427Y-87641681D01*
X201038430Y-87641693D01*
X201113807Y-87823671D01*
X201113814Y-87823684D01*
X201223248Y-87987462D01*
X201223251Y-87987466D01*
X201362533Y-88126748D01*
X201362537Y-88126751D01*
X201526315Y-88236185D01*
X201526328Y-88236192D01*
X201708308Y-88311569D01*
X201750000Y-88319862D01*
X201750000Y-87516988D01*
X201759940Y-87534205D01*
X201815795Y-87590060D01*
X201884204Y-87629556D01*
X201960504Y-87650000D01*
X202039496Y-87650000D01*
X202115796Y-87629556D01*
X202184205Y-87590060D01*
X202240060Y-87534205D01*
X202250000Y-87516988D01*
X202250000Y-88319862D01*
X202291690Y-88311569D01*
X202291692Y-88311569D01*
X202462895Y-88240656D01*
X202473671Y-88236192D01*
X202473684Y-88236185D01*
X202637462Y-88126751D01*
X202637466Y-88126748D01*
X202776748Y-87987466D01*
X202776751Y-87987462D01*
X202886185Y-87823684D01*
X202886192Y-87823671D01*
X202961569Y-87641693D01*
X202961572Y-87641681D01*
X202999999Y-87448495D01*
X203000000Y-87448492D01*
X203000000Y-87050000D01*
X202300000Y-87050000D01*
X202300000Y-86550000D01*
X202838216Y-86550000D01*
X202905255Y-86569685D01*
X202945602Y-86611999D01*
X202969485Y-86653365D01*
X203076635Y-86760515D01*
X203207865Y-86836281D01*
X203354234Y-86875500D01*
X203354236Y-86875500D01*
X203505764Y-86875500D01*
X203505766Y-86875500D01*
X203652135Y-86836281D01*
X203783365Y-86760515D01*
X203890515Y-86653365D01*
X203966281Y-86522135D01*
X204005500Y-86375766D01*
X204005500Y-86224234D01*
X203966281Y-86077865D01*
X203890515Y-85946635D01*
X203875033Y-85931153D01*
X204329500Y-85931153D01*
X204329500Y-86088846D01*
X204360261Y-86243489D01*
X204360264Y-86243501D01*
X204420602Y-86389172D01*
X204420609Y-86389185D01*
X204508210Y-86520288D01*
X204508213Y-86520292D01*
X204619707Y-86631786D01*
X204619711Y-86631789D01*
X204750814Y-86719390D01*
X204750827Y-86719397D01*
X204896498Y-86779735D01*
X204896503Y-86779737D01*
X205051153Y-86810499D01*
X205051156Y-86810500D01*
X205051158Y-86810500D01*
X205208844Y-86810500D01*
X205208845Y-86810499D01*
X205363497Y-86779737D01*
X205509179Y-86719394D01*
X205539117Y-86699390D01*
X205640875Y-86631398D01*
X205707553Y-86610520D01*
X205709766Y-86610500D01*
X206000166Y-86610500D01*
X206067205Y-86630185D01*
X206069057Y-86631398D01*
X206170814Y-86699390D01*
X206170827Y-86699397D01*
X206316498Y-86759735D01*
X206316503Y-86759737D01*
X206471153Y-86790499D01*
X206471156Y-86790500D01*
X206471158Y-86790500D01*
X206628844Y-86790500D01*
X206628845Y-86790499D01*
X206783497Y-86759737D01*
X206929179Y-86699394D01*
X207060289Y-86611789D01*
X207171789Y-86500289D01*
X207259394Y-86369179D01*
X207319432Y-86224234D01*
X208634500Y-86224234D01*
X208634500Y-86375765D01*
X208673719Y-86522136D01*
X208689807Y-86550000D01*
X208749485Y-86653365D01*
X208856635Y-86760515D01*
X208987865Y-86836281D01*
X209134234Y-86875500D01*
X209134236Y-86875500D01*
X209285763Y-86875500D01*
X209285766Y-86875500D01*
X209432135Y-86836281D01*
X209563365Y-86760515D01*
X209670515Y-86653365D01*
X209694397Y-86611999D01*
X209744964Y-86563784D01*
X209801784Y-86550000D01*
X210340000Y-86550000D01*
X210340000Y-87050000D01*
X209640000Y-87050000D01*
X209640000Y-87448495D01*
X209678427Y-87641681D01*
X209678430Y-87641693D01*
X209753807Y-87823671D01*
X209753814Y-87823684D01*
X209863248Y-87987462D01*
X209863251Y-87987466D01*
X210002533Y-88126748D01*
X210002537Y-88126751D01*
X210166315Y-88236185D01*
X210166328Y-88236192D01*
X210348308Y-88311569D01*
X210390000Y-88319862D01*
X210390000Y-87516988D01*
X210399940Y-87534205D01*
X210455795Y-87590060D01*
X210524204Y-87629556D01*
X210600504Y-87650000D01*
X210679496Y-87650000D01*
X210755796Y-87629556D01*
X210824205Y-87590060D01*
X210880060Y-87534205D01*
X210890000Y-87516988D01*
X210890000Y-88319862D01*
X210931690Y-88311569D01*
X210931692Y-88311569D01*
X211113671Y-88236192D01*
X211113684Y-88236185D01*
X211277462Y-88126751D01*
X211277466Y-88126748D01*
X211416748Y-87987466D01*
X211416751Y-87987462D01*
X211526185Y-87823684D01*
X211526192Y-87823671D01*
X211601569Y-87641693D01*
X211601572Y-87641681D01*
X211639999Y-87448495D01*
X211640000Y-87448492D01*
X211640000Y-87050000D01*
X210940000Y-87050000D01*
X210940000Y-86550000D01*
X211640000Y-86550000D01*
X211640000Y-86151508D01*
X211639999Y-86151504D01*
X211601572Y-85958318D01*
X211601569Y-85958306D01*
X211526192Y-85776328D01*
X211526185Y-85776315D01*
X211416751Y-85612537D01*
X211416748Y-85612533D01*
X211277466Y-85473251D01*
X211277462Y-85473248D01*
X211113684Y-85363814D01*
X211113671Y-85363807D01*
X210931691Y-85288429D01*
X210931683Y-85288427D01*
X210890000Y-85280135D01*
X210890000Y-86083011D01*
X210880060Y-86065795D01*
X210824205Y-86009940D01*
X210755796Y-85970444D01*
X210679496Y-85950000D01*
X210600504Y-85950000D01*
X210524204Y-85970444D01*
X210455795Y-86009940D01*
X210399940Y-86065795D01*
X210390000Y-86083011D01*
X210390000Y-85280136D01*
X210389999Y-85280135D01*
X210348316Y-85288427D01*
X210348308Y-85288429D01*
X210166328Y-85363807D01*
X210166315Y-85363814D01*
X210002537Y-85473248D01*
X210002533Y-85473251D01*
X209863251Y-85612533D01*
X209863248Y-85612537D01*
X209753814Y-85776315D01*
X209753809Y-85776324D01*
X209749866Y-85785845D01*
X209706023Y-85840247D01*
X209639728Y-85862310D01*
X209572030Y-85845029D01*
X209566597Y-85841351D01*
X209432136Y-85763719D01*
X209358950Y-85744109D01*
X209285766Y-85724500D01*
X209134234Y-85724500D01*
X208987863Y-85763719D01*
X208856635Y-85839485D01*
X208856632Y-85839487D01*
X208749487Y-85946632D01*
X208749485Y-85946635D01*
X208673719Y-86077863D01*
X208634500Y-86224234D01*
X207319432Y-86224234D01*
X207319737Y-86223497D01*
X207350500Y-86068842D01*
X207350500Y-85911158D01*
X207350500Y-85911155D01*
X207350499Y-85911153D01*
X207337346Y-85845029D01*
X207319737Y-85756503D01*
X207267681Y-85630827D01*
X207259397Y-85610827D01*
X207259390Y-85610814D01*
X207171789Y-85479711D01*
X207171786Y-85479707D01*
X207060292Y-85368213D01*
X207060288Y-85368210D01*
X206929185Y-85280609D01*
X206929172Y-85280602D01*
X206783501Y-85220264D01*
X206783489Y-85220261D01*
X206628845Y-85189500D01*
X206628842Y-85189500D01*
X206471158Y-85189500D01*
X206471155Y-85189500D01*
X206316510Y-85220261D01*
X206316498Y-85220264D01*
X206170827Y-85280602D01*
X206170814Y-85280609D01*
X206039711Y-85368210D01*
X206039707Y-85368213D01*
X206034740Y-85373181D01*
X206007812Y-85387884D01*
X205981994Y-85404477D01*
X205975793Y-85405368D01*
X205973417Y-85406666D01*
X205947059Y-85409500D01*
X205709766Y-85409500D01*
X205642727Y-85389815D01*
X205640875Y-85388602D01*
X205509185Y-85300609D01*
X205509172Y-85300602D01*
X205363501Y-85240264D01*
X205363489Y-85240261D01*
X205208845Y-85209500D01*
X205208842Y-85209500D01*
X205051158Y-85209500D01*
X205051155Y-85209500D01*
X204896510Y-85240261D01*
X204896498Y-85240264D01*
X204750827Y-85300602D01*
X204750814Y-85300609D01*
X204619711Y-85388210D01*
X204619707Y-85388213D01*
X204508213Y-85499707D01*
X204508210Y-85499711D01*
X204420609Y-85630814D01*
X204420602Y-85630827D01*
X204360264Y-85776498D01*
X204360261Y-85776510D01*
X204329500Y-85931153D01*
X203875033Y-85931153D01*
X203783365Y-85839485D01*
X203713406Y-85799094D01*
X203652136Y-85763719D01*
X203578950Y-85744109D01*
X203505766Y-85724500D01*
X203354234Y-85724500D01*
X203207863Y-85763719D01*
X203116428Y-85816510D01*
X203076635Y-85839485D01*
X203076633Y-85839486D01*
X203069597Y-85843549D01*
X203068327Y-85841349D01*
X203014995Y-85861960D01*
X202946552Y-85847914D01*
X202896568Y-85799094D01*
X202890131Y-85785838D01*
X202886192Y-85776328D01*
X202886185Y-85776315D01*
X202776751Y-85612537D01*
X202776748Y-85612533D01*
X202637466Y-85473251D01*
X202637462Y-85473248D01*
X202473684Y-85363814D01*
X202473671Y-85363807D01*
X202291691Y-85288429D01*
X202291683Y-85288427D01*
X202250000Y-85280135D01*
X202250000Y-86083011D01*
X202240060Y-86065795D01*
X202184205Y-86009940D01*
X202115796Y-85970444D01*
X202039496Y-85950000D01*
X201960504Y-85950000D01*
X201884204Y-85970444D01*
X201815795Y-86009940D01*
X201759940Y-86065795D01*
X201750000Y-86083011D01*
X201750000Y-85280136D01*
X201749999Y-85280135D01*
X201708316Y-85288427D01*
X201708308Y-85288429D01*
X201526328Y-85363807D01*
X201526315Y-85363814D01*
X201362537Y-85473248D01*
X201362533Y-85473251D01*
X201223251Y-85612533D01*
X201223248Y-85612537D01*
X201113814Y-85776315D01*
X201113807Y-85776328D01*
X201038430Y-85958306D01*
X201038427Y-85958318D01*
X201000000Y-86151504D01*
X193900500Y-86151504D01*
X193900500Y-85451439D01*
X193920185Y-85384400D01*
X193972989Y-85338645D01*
X193981168Y-85335257D01*
X194092326Y-85293798D01*
X194092326Y-85293797D01*
X194092331Y-85293796D01*
X194207546Y-85207546D01*
X194293796Y-85092331D01*
X194344091Y-84957483D01*
X194350500Y-84897873D01*
X194350499Y-84873979D01*
X194353330Y-84860963D01*
X194363940Y-84841525D01*
X194370179Y-84820275D01*
X194386803Y-84799643D01*
X194386808Y-84799636D01*
X194386811Y-84799634D01*
X194386818Y-84799626D01*
X195057037Y-84129408D01*
X195074075Y-84192993D01*
X195139901Y-84307007D01*
X195232993Y-84400099D01*
X195347007Y-84465925D01*
X195410590Y-84482962D01*
X194778282Y-85115269D01*
X194778282Y-85115270D01*
X194832449Y-85154624D01*
X195021782Y-85251095D01*
X195223870Y-85316757D01*
X195433754Y-85350000D01*
X195646246Y-85350000D01*
X195856127Y-85316757D01*
X195856130Y-85316757D01*
X196058217Y-85251095D01*
X196247554Y-85154622D01*
X196301716Y-85115270D01*
X196301717Y-85115270D01*
X195669408Y-84482962D01*
X195732993Y-84465925D01*
X195847007Y-84400099D01*
X195940099Y-84307007D01*
X196005925Y-84192993D01*
X196022962Y-84129408D01*
X196655270Y-84761717D01*
X196655270Y-84761716D01*
X196694622Y-84707554D01*
X196791095Y-84518217D01*
X196856757Y-84316130D01*
X196856757Y-84316127D01*
X196890000Y-84106246D01*
X196890000Y-83893753D01*
X196856757Y-83683872D01*
X196856757Y-83683869D01*
X196791095Y-83481782D01*
X196694624Y-83292449D01*
X196655270Y-83238282D01*
X196655269Y-83238282D01*
X196022962Y-83870590D01*
X196005925Y-83807007D01*
X195940099Y-83692993D01*
X195847007Y-83599901D01*
X195732993Y-83534075D01*
X195669409Y-83517037D01*
X196301716Y-82884728D01*
X196247550Y-82845375D01*
X196058217Y-82748904D01*
X195856129Y-82683242D01*
X195646246Y-82650000D01*
X195433754Y-82650000D01*
X195223872Y-82683242D01*
X195223869Y-82683242D01*
X195021782Y-82748904D01*
X194832439Y-82845380D01*
X194778282Y-82884727D01*
X194778282Y-82884728D01*
X195410591Y-83517037D01*
X195347007Y-83534075D01*
X195232993Y-83599901D01*
X195139901Y-83692993D01*
X195074075Y-83807007D01*
X195057037Y-83870591D01*
X194386818Y-83200372D01*
X194353333Y-83139049D01*
X194353330Y-83139036D01*
X194350499Y-83126015D01*
X194350499Y-83102128D01*
X194344091Y-83042517D01*
X194315926Y-82967002D01*
X194293798Y-82907673D01*
X194293793Y-82907664D01*
X194207547Y-82792455D01*
X194207544Y-82792452D01*
X194092335Y-82706206D01*
X194092328Y-82706202D01*
X193957482Y-82655908D01*
X193957483Y-82655908D01*
X193897883Y-82649501D01*
X193897881Y-82649500D01*
X193897873Y-82649500D01*
X193897864Y-82649500D01*
X192102129Y-82649500D01*
X192102123Y-82649501D01*
X192042516Y-82655908D01*
X191907671Y-82706202D01*
X191907664Y-82706206D01*
X191792455Y-82792452D01*
X191792452Y-82792455D01*
X191706206Y-82907664D01*
X191706202Y-82907671D01*
X191655908Y-83042517D01*
X191649501Y-83102116D01*
X191649500Y-83102135D01*
X191649500Y-84897870D01*
X191649501Y-84897876D01*
X191655908Y-84957483D01*
X191706202Y-85092328D01*
X191706206Y-85092335D01*
X191792452Y-85207544D01*
X191792455Y-85207547D01*
X191907664Y-85293793D01*
X191907673Y-85293798D01*
X192018832Y-85335257D01*
X192074766Y-85377127D01*
X192099184Y-85442592D01*
X192099500Y-85451439D01*
X192099500Y-92708560D01*
X192079815Y-92775599D01*
X192027011Y-92821354D01*
X192018833Y-92824742D01*
X191907671Y-92866202D01*
X191907664Y-92866206D01*
X191792455Y-92952452D01*
X191792452Y-92952455D01*
X191706206Y-93067664D01*
X191706202Y-93067671D01*
X191655908Y-93202517D01*
X191649501Y-93262116D01*
X191649500Y-93262135D01*
X191649500Y-95057870D01*
X191649501Y-95057876D01*
X191655908Y-95117483D01*
X191706202Y-95252328D01*
X191706206Y-95252335D01*
X191792452Y-95367544D01*
X191792455Y-95367547D01*
X191907664Y-95453793D01*
X191907673Y-95453798D01*
X192018832Y-95495257D01*
X192074766Y-95537127D01*
X192099184Y-95602592D01*
X192099500Y-95611439D01*
X192099500Y-97538696D01*
X192134103Y-97712659D01*
X192134104Y-97712663D01*
X192134105Y-97712666D01*
X192153461Y-97759394D01*
X192201987Y-97876547D01*
X192240447Y-97934106D01*
X192286734Y-98003379D01*
X192300537Y-98024038D01*
X192300538Y-98024039D01*
X193564320Y-99287819D01*
X193597805Y-99349142D01*
X193592821Y-99418833D01*
X193550950Y-99474767D01*
X193485485Y-99499184D01*
X193476639Y-99499500D01*
X191256962Y-99499500D01*
X191243078Y-99498720D01*
X191230553Y-99497308D01*
X191152735Y-99488540D01*
X191125666Y-99482362D01*
X191046462Y-99454648D01*
X191021444Y-99442600D01*
X190950395Y-99397957D01*
X190928686Y-99380644D01*
X190869355Y-99321313D01*
X190852042Y-99299604D01*
X190848707Y-99294297D01*
X190807398Y-99228553D01*
X190795351Y-99203537D01*
X190767637Y-99124333D01*
X190761459Y-99097263D01*
X190751280Y-99006922D01*
X190750500Y-98993038D01*
X190750500Y-82121504D01*
X201000000Y-82121504D01*
X201000000Y-82370000D01*
X201700000Y-82370000D01*
X201700000Y-82870000D01*
X201000000Y-82870000D01*
X201000000Y-83118495D01*
X201038427Y-83311681D01*
X201038430Y-83311693D01*
X201113807Y-83493671D01*
X201113814Y-83493684D01*
X201223248Y-83657462D01*
X201223251Y-83657466D01*
X201362533Y-83796748D01*
X201362537Y-83796751D01*
X201526315Y-83906185D01*
X201526328Y-83906192D01*
X201708308Y-83981569D01*
X201750000Y-83989862D01*
X201750000Y-83186988D01*
X201759940Y-83204205D01*
X201815795Y-83260060D01*
X201884204Y-83299556D01*
X201960504Y-83320000D01*
X202039496Y-83320000D01*
X202115796Y-83299556D01*
X202184205Y-83260060D01*
X202240060Y-83204205D01*
X202250000Y-83186988D01*
X202250000Y-83989862D01*
X202291690Y-83981569D01*
X202291692Y-83981569D01*
X202473671Y-83906192D01*
X202473684Y-83906185D01*
X202637462Y-83796751D01*
X202637466Y-83796748D01*
X202776748Y-83657466D01*
X202776751Y-83657462D01*
X202886185Y-83493684D01*
X202886192Y-83493671D01*
X202961569Y-83311693D01*
X202961572Y-83311681D01*
X202999999Y-83118495D01*
X203000000Y-83118492D01*
X203000000Y-82870000D01*
X202300000Y-82870000D01*
X202300000Y-82370000D01*
X203000000Y-82370000D01*
X203000000Y-82121508D01*
X202999999Y-82121504D01*
X209640000Y-82121504D01*
X209640000Y-82370000D01*
X210340000Y-82370000D01*
X210340000Y-82870000D01*
X209640000Y-82870000D01*
X209640000Y-83118495D01*
X209678427Y-83311681D01*
X209678430Y-83311693D01*
X209753807Y-83493671D01*
X209753814Y-83493684D01*
X209863248Y-83657462D01*
X209863251Y-83657466D01*
X210002533Y-83796748D01*
X210002537Y-83796751D01*
X210166315Y-83906185D01*
X210166328Y-83906192D01*
X210348308Y-83981569D01*
X210390000Y-83989862D01*
X210390000Y-83186988D01*
X210399940Y-83204205D01*
X210455795Y-83260060D01*
X210524204Y-83299556D01*
X210600504Y-83320000D01*
X210679496Y-83320000D01*
X210755796Y-83299556D01*
X210824205Y-83260060D01*
X210880060Y-83204205D01*
X210890000Y-83186988D01*
X210890000Y-83989862D01*
X210931690Y-83981569D01*
X210931692Y-83981569D01*
X211113671Y-83906192D01*
X211113684Y-83906185D01*
X211277462Y-83796751D01*
X211277466Y-83796748D01*
X211416748Y-83657466D01*
X211416751Y-83657462D01*
X211526185Y-83493684D01*
X211526192Y-83493671D01*
X211601569Y-83311693D01*
X211601572Y-83311681D01*
X211639999Y-83118495D01*
X211640000Y-83118492D01*
X211640000Y-82870000D01*
X210940000Y-82870000D01*
X210940000Y-82370000D01*
X211640000Y-82370000D01*
X211640000Y-82121508D01*
X211639999Y-82121504D01*
X211601572Y-81928318D01*
X211601569Y-81928306D01*
X211526192Y-81746328D01*
X211526185Y-81746315D01*
X211416751Y-81582537D01*
X211416748Y-81582533D01*
X211277466Y-81443251D01*
X211277462Y-81443248D01*
X211113684Y-81333814D01*
X211113671Y-81333807D01*
X210931691Y-81258429D01*
X210931683Y-81258427D01*
X210890000Y-81250135D01*
X210890000Y-82053011D01*
X210880060Y-82035795D01*
X210824205Y-81979940D01*
X210755796Y-81940444D01*
X210679496Y-81920000D01*
X210600504Y-81920000D01*
X210524204Y-81940444D01*
X210455795Y-81979940D01*
X210399940Y-82035795D01*
X210390000Y-82053011D01*
X210390000Y-81250136D01*
X210389999Y-81250135D01*
X210348316Y-81258427D01*
X210348308Y-81258429D01*
X210166328Y-81333807D01*
X210166315Y-81333814D01*
X210002537Y-81443248D01*
X210002533Y-81443251D01*
X209863251Y-81582533D01*
X209863248Y-81582537D01*
X209753814Y-81746315D01*
X209753807Y-81746328D01*
X209678430Y-81928306D01*
X209678427Y-81928318D01*
X209640000Y-82121504D01*
X202999999Y-82121504D01*
X202961572Y-81928318D01*
X202961569Y-81928306D01*
X202886192Y-81746328D01*
X202886185Y-81746315D01*
X202776751Y-81582537D01*
X202776748Y-81582533D01*
X202637466Y-81443251D01*
X202637462Y-81443248D01*
X202473684Y-81333814D01*
X202473671Y-81333807D01*
X202291691Y-81258429D01*
X202291683Y-81258427D01*
X202250000Y-81250135D01*
X202250000Y-82053011D01*
X202240060Y-82035795D01*
X202184205Y-81979940D01*
X202115796Y-81940444D01*
X202039496Y-81920000D01*
X201960504Y-81920000D01*
X201884204Y-81940444D01*
X201815795Y-81979940D01*
X201759940Y-82035795D01*
X201750000Y-82053011D01*
X201750000Y-81250136D01*
X201749999Y-81250135D01*
X201708316Y-81258427D01*
X201708308Y-81258429D01*
X201526328Y-81333807D01*
X201526315Y-81333814D01*
X201362537Y-81443248D01*
X201362533Y-81443251D01*
X201223251Y-81582533D01*
X201223248Y-81582537D01*
X201113814Y-81746315D01*
X201113807Y-81746328D01*
X201038430Y-81928306D01*
X201038427Y-81928318D01*
X201000000Y-82121504D01*
X190750500Y-82121504D01*
X190750500Y-81006961D01*
X190751280Y-80993077D01*
X190751280Y-80993076D01*
X190761460Y-80902729D01*
X190767635Y-80875670D01*
X190795353Y-80796456D01*
X190807396Y-80771450D01*
X190852046Y-80700389D01*
X190869351Y-80678690D01*
X190928690Y-80619351D01*
X190950389Y-80602046D01*
X191021450Y-80557396D01*
X191046456Y-80545353D01*
X191125670Y-80517635D01*
X191152733Y-80511459D01*
X191215419Y-80504396D01*
X191243079Y-80501280D01*
X191256962Y-80500500D01*
X191315892Y-80500500D01*
X242184108Y-80500500D01*
X242243038Y-80500500D01*
X242256922Y-80501280D01*
G37*
%TD.AperFunction*%
%TD*%
M02*
