%TF.GenerationSoftware,KiCad,Pcbnew,9.0.3*%
%TF.CreationDate,2025-08-21T23:57:32+02:00*%
%TF.ProjectId,20250807_updi,32303235-3038-4303-975f-757064692e6b,rev?*%
%TF.SameCoordinates,Original*%
%TF.FileFunction,Paste,Top*%
%TF.FilePolarity,Positive*%
%FSLAX46Y46*%
G04 Gerber Fmt 4.6, Leading zero omitted, Abs format (unit mm)*
G04 Created by KiCad (PCBNEW 9.0.3) date 2025-08-21 23:57:32*
%MOMM*%
%LPD*%
G01*
G04 APERTURE LIST*
G04 Aperture macros list*
%AMRoundRect*
0 Rectangle with rounded corners*
0 $1 Rounding radius*
0 $2 $3 $4 $5 $6 $7 $8 $9 X,Y pos of 4 corners*
0 Add a 4 corners polygon primitive as box body*
4,1,4,$2,$3,$4,$5,$6,$7,$8,$9,$2,$3,0*
0 Add four circle primitives for the rounded corners*
1,1,$1+$1,$2,$3*
1,1,$1+$1,$4,$5*
1,1,$1+$1,$6,$7*
1,1,$1+$1,$8,$9*
0 Add four rect primitives between the rounded corners*
20,1,$1+$1,$2,$3,$4,$5,0*
20,1,$1+$1,$4,$5,$6,$7,0*
20,1,$1+$1,$6,$7,$8,$9,0*
20,1,$1+$1,$8,$9,$2,$3,0*%
G04 Aperture macros list end*
%ADD10RoundRect,0.250000X0.475000X-0.337500X0.475000X0.337500X-0.475000X0.337500X-0.475000X-0.337500X0*%
%ADD11RoundRect,0.250000X-0.450000X0.325000X-0.450000X-0.325000X0.450000X-0.325000X0.450000X0.325000X0*%
%ADD12RoundRect,0.250000X-0.450000X0.350000X-0.450000X-0.350000X0.450000X-0.350000X0.450000X0.350000X0*%
%ADD13RoundRect,0.250000X0.450000X-0.350000X0.450000X0.350000X-0.450000X0.350000X-0.450000X-0.350000X0*%
%ADD14RoundRect,0.375000X-0.375000X0.625000X-0.375000X-0.625000X0.375000X-0.625000X0.375000X0.625000X0*%
%ADD15RoundRect,0.500000X-1.400000X0.500000X-1.400000X-0.500000X1.400000X-0.500000X1.400000X0.500000X0*%
%ADD16RoundRect,0.250000X-0.475000X0.337500X-0.475000X-0.337500X0.475000X-0.337500X0.475000X0.337500X0*%
%ADD17RoundRect,0.150000X0.150000X0.425000X-0.150000X0.425000X-0.150000X-0.425000X0.150000X-0.425000X0*%
%ADD18RoundRect,0.075000X0.075000X0.500000X-0.075000X0.500000X-0.075000X-0.500000X0.075000X-0.500000X0*%
%ADD19O,1.000000X2.100000*%
%ADD20O,1.000000X1.800000*%
%ADD21RoundRect,0.250000X-0.337500X-0.475000X0.337500X-0.475000X0.337500X0.475000X-0.337500X0.475000X0*%
%ADD22RoundRect,0.250000X-0.400000X-1.450000X0.400000X-1.450000X0.400000X1.450000X-0.400000X1.450000X0*%
%ADD23RoundRect,0.250000X-0.350000X-0.450000X0.350000X-0.450000X0.350000X0.450000X-0.350000X0.450000X0*%
%ADD24RoundRect,0.112500X-0.237500X0.112500X-0.237500X-0.112500X0.237500X-0.112500X0.237500X0.112500X0*%
%ADD25RoundRect,0.250000X-0.595000X-1.080000X0.595000X-1.080000X0.595000X1.080000X-0.595000X1.080000X0*%
%ADD26RoundRect,0.150000X-0.687500X-0.150000X0.687500X-0.150000X0.687500X0.150000X-0.687500X0.150000X0*%
G04 APERTURE END LIST*
D10*
%TO.C,C2*%
X233450000Y-84100000D03*
X233450000Y-82025000D03*
%TD*%
D11*
%TO.C,D6*%
X207800000Y-94850000D03*
X207800000Y-96900000D03*
%TD*%
%TO.C,D7*%
X225500000Y-94950000D03*
X225500000Y-97000000D03*
%TD*%
D12*
%TO.C,R5*%
X235200000Y-95000000D03*
X235200000Y-97000000D03*
%TD*%
D13*
%TO.C,R6*%
X209900000Y-96900000D03*
X209900000Y-94900000D03*
%TD*%
D14*
%TO.C,U2*%
X230250000Y-82350000D03*
X227950000Y-82350000D03*
D15*
X227950000Y-88650000D03*
D14*
X225650000Y-82350000D03*
%TD*%
D16*
%TO.C,C1*%
X221650000Y-82100000D03*
X221650000Y-84175000D03*
%TD*%
D17*
%TO.C,J1*%
X209520000Y-87375000D03*
X208720000Y-87375000D03*
D18*
X207570000Y-87375000D03*
X206570000Y-87375000D03*
X206070000Y-87375000D03*
X205070000Y-87375000D03*
D17*
X203920000Y-87375000D03*
X203120000Y-87375000D03*
X203120000Y-87375000D03*
X203920000Y-87375000D03*
D18*
X204570000Y-87375000D03*
X205570000Y-87375000D03*
X207070000Y-87375000D03*
X208070000Y-87375000D03*
D17*
X208720000Y-87375000D03*
X209520000Y-87375000D03*
D19*
X210640000Y-86800000D03*
D20*
X210640000Y-82620000D03*
D19*
X202000000Y-86800000D03*
D20*
X202000000Y-82620000D03*
%TD*%
D21*
%TO.C,C6*%
X216400000Y-87025000D03*
X218475000Y-87025000D03*
%TD*%
D22*
%TO.C,F1*%
X213875000Y-82650000D03*
X218325000Y-82650000D03*
%TD*%
D13*
%TO.C,R2*%
X199400000Y-83350000D03*
X199400000Y-81350000D03*
%TD*%
D23*
%TO.C,R4*%
X212600000Y-87050000D03*
X214600000Y-87050000D03*
%TD*%
D12*
%TO.C,R3*%
X199400000Y-85600000D03*
X199400000Y-87600000D03*
%TD*%
D16*
%TO.C,C5*%
X238050000Y-86662500D03*
X238050000Y-88737500D03*
%TD*%
D24*
%TO.C,D1*%
X220125000Y-88900000D03*
X220125000Y-90200000D03*
X222125000Y-89550000D03*
%TD*%
D11*
%TO.C,D5*%
X233200000Y-95000000D03*
X233200000Y-97050000D03*
%TD*%
D12*
%TO.C,R1*%
X212050000Y-94850000D03*
X212050000Y-96850000D03*
%TD*%
D16*
%TO.C,C4*%
X193000000Y-86650000D03*
X193000000Y-88725000D03*
%TD*%
D21*
%TO.C,C3*%
X220262500Y-91900000D03*
X222337500Y-91900000D03*
%TD*%
D11*
%TO.C,D4*%
X231000000Y-95000000D03*
X231000000Y-97050000D03*
%TD*%
D13*
%TO.C,R7*%
X227600000Y-97000000D03*
X227600000Y-95000000D03*
%TD*%
D25*
%TO.C,U1*%
X215637500Y-90950000D03*
D26*
X213000000Y-88950000D03*
X213000000Y-89950000D03*
X213000000Y-90950000D03*
X213000000Y-91950000D03*
X213000000Y-92950000D03*
X218275000Y-92950000D03*
X218275000Y-91950000D03*
X218275000Y-90950000D03*
X218275000Y-89950000D03*
X218275000Y-88950000D03*
%TD*%
M02*
