%TF.GenerationSoftware,KiCad,Pcbnew,9.0.3*%
%TF.CreationDate,2025-08-21T23:57:35+02:00*%
%TF.ProjectId,20250807_updi,32303235-3038-4303-975f-757064692e6b,rev?*%
%TF.SameCoordinates,Original*%
%TF.FileFunction,Drillmap*%
%TF.FilePolarity,Positive*%
%FSLAX45Y45*%
G04 Gerber Fmt 4.5, Leading zero omitted, Abs format (unit mm)*
G04 Created by KiCad (PCBNEW 9.0.3) date 2025-08-21 23:57:35*
%MOMM*%
%LPD*%
G01*
G04 APERTURE LIST*
%ADD10C,0.050000*%
%ADD11C,0.200000*%
%ADD12C,0.100000*%
G04 APERTURE END LIST*
D10*
X19125000Y-10000000D02*
G75*
G02*
X19025000Y-9900000I0J100000D01*
G01*
X19025000Y-8100000D02*
X19025000Y-9900000D01*
X19025000Y-8100000D02*
G75*
G02*
X19125000Y-8000000I100000J0D01*
G01*
X24325000Y-8100000D02*
X24325000Y-9900000D01*
X24325000Y-9900000D02*
G75*
G02*
X24225000Y-10000000I-100000J0D01*
G01*
X19125000Y-10000000D02*
X24225000Y-10000000D01*
X19125000Y-8000000D02*
X24225000Y-8000000D01*
X24225000Y-8000000D02*
G75*
G02*
X24325000Y-8100000I0J-100000D01*
G01*
D11*
D12*
X19125000Y-8105000D02*
X19155000Y-8135000D01*
X19155000Y-8105000D02*
X19125000Y-8135000D01*
X19130000Y-9110000D02*
X19160000Y-9140000D01*
X19160000Y-9110000D02*
X19130000Y-9140000D01*
X19140000Y-9860000D02*
X19170000Y-9890000D01*
X19170000Y-9860000D02*
X19140000Y-9890000D01*
X19440000Y-9100000D02*
X19470000Y-9130000D01*
X19470000Y-9100000D02*
X19440000Y-9130000D01*
X20375000Y-8830000D02*
X20405000Y-8860000D01*
X20405000Y-8830000D02*
X20375000Y-8860000D01*
X20498000Y-8586000D02*
X20528000Y-8616000D01*
X20528000Y-8586000D02*
X20498000Y-8616000D01*
X20640000Y-8584000D02*
X20670000Y-8614000D01*
X20670000Y-8584000D02*
X20640000Y-8614000D01*
X20765000Y-9890000D02*
X20795000Y-9920000D01*
X20795000Y-9890000D02*
X20765000Y-9920000D01*
X20828000Y-9300000D02*
X20858000Y-9330000D01*
X20858000Y-9300000D02*
X20828000Y-9330000D01*
X20855000Y-8835000D02*
X20885000Y-8865000D01*
X20885000Y-8835000D02*
X20855000Y-8865000D01*
X21070000Y-9675000D02*
X21100000Y-9705000D01*
X21100000Y-9675000D02*
X21070000Y-9705000D01*
X21089000Y-9071000D02*
X21119000Y-9101000D01*
X21119000Y-9071000D02*
X21089000Y-9101000D01*
X21153000Y-9362000D02*
X21183000Y-9392000D01*
X21183000Y-9362000D02*
X21153000Y-9392000D01*
X21393750Y-9180000D02*
X21423750Y-9210000D01*
X21423750Y-9180000D02*
X21393750Y-9210000D01*
X21445000Y-8790000D02*
X21475000Y-8820000D01*
X21475000Y-8790000D02*
X21445000Y-8820000D01*
X21685000Y-9230000D02*
X21715000Y-9260000D01*
X21715000Y-9230000D02*
X21685000Y-9260000D01*
X21703750Y-8980000D02*
X21733750Y-9010000D01*
X21733750Y-8980000D02*
X21703750Y-9010000D01*
X21703750Y-9080000D02*
X21733750Y-9110000D01*
X21733750Y-9080000D02*
X21703750Y-9110000D01*
X21954000Y-8445000D02*
X21984000Y-8475000D01*
X21984000Y-8445000D02*
X21954000Y-8475000D01*
X21980000Y-8250000D02*
X22010000Y-8280000D01*
X22010000Y-8250000D02*
X21980000Y-8280000D01*
X22110000Y-9385000D02*
X22140000Y-9415000D01*
X22140000Y-9385000D02*
X22110000Y-9415000D01*
X22345000Y-8405000D02*
X22375000Y-8435000D01*
X22375000Y-8405000D02*
X22345000Y-8435000D01*
X22345000Y-8840000D02*
X22375000Y-8870000D01*
X22375000Y-8840000D02*
X22345000Y-8870000D01*
X22535000Y-9890000D02*
X22565000Y-9920000D01*
X22565000Y-9890000D02*
X22535000Y-9920000D01*
X22965000Y-8590000D02*
X22995000Y-8620000D01*
X22995000Y-8590000D02*
X22965000Y-8620000D01*
X22975000Y-9690000D02*
X23005000Y-9720000D01*
X23005000Y-9690000D02*
X22975000Y-9720000D01*
X23175000Y-8220000D02*
X23205000Y-8250000D01*
X23205000Y-8220000D02*
X23175000Y-8250000D01*
X23495000Y-8165000D02*
X23525000Y-8195000D01*
X23525000Y-8165000D02*
X23495000Y-8195000D01*
X23645000Y-8995000D02*
X23675000Y-9025000D01*
X23675000Y-8995000D02*
X23645000Y-9025000D01*
X23645000Y-9180000D02*
X23675000Y-9210000D01*
X23675000Y-9180000D02*
X23645000Y-9210000D01*
X23925000Y-8995000D02*
X23955000Y-9025000D01*
X23955000Y-8995000D02*
X23925000Y-9025000D01*
X23925000Y-9180000D02*
X23955000Y-9210000D01*
X23955000Y-9180000D02*
X23925000Y-9210000D01*
X24130000Y-9810000D02*
X24160000Y-9840000D01*
X24160000Y-9810000D02*
X24130000Y-9840000D01*
X20230000Y-8262000D02*
G75*
G02*
X20170000Y-8262000I-30000J0D01*
G01*
X20170000Y-8262000D02*
G75*
G02*
X20230000Y-8262000I30000J0D01*
G01*
X20230000Y-8302000D02*
X20230000Y-8222000D01*
X20170000Y-8222000D02*
G75*
G02*
X20230000Y-8222000I30000J0D01*
G01*
X20170000Y-8222000D02*
X20170000Y-8302000D01*
X20170000Y-8302000D02*
G75*
G03*
X20230000Y-8302000I30000J0D01*
G01*
X20230000Y-8680000D02*
G75*
G02*
X20170000Y-8680000I-30000J0D01*
G01*
X20170000Y-8680000D02*
G75*
G02*
X20230000Y-8680000I30000J0D01*
G01*
X20230000Y-8735000D02*
X20230000Y-8625000D01*
X20170000Y-8625000D02*
G75*
G02*
X20230000Y-8625000I30000J0D01*
G01*
X20170000Y-8625000D02*
X20170000Y-8735000D01*
X20170000Y-8735000D02*
G75*
G03*
X20230000Y-8735000I30000J0D01*
G01*
X21094000Y-8262000D02*
G75*
G02*
X21034000Y-8262000I-30000J0D01*
G01*
X21034000Y-8262000D02*
G75*
G02*
X21094000Y-8262000I30000J0D01*
G01*
X21094000Y-8302000D02*
X21094000Y-8222000D01*
X21034000Y-8222000D02*
G75*
G02*
X21094000Y-8222000I30000J0D01*
G01*
X21034000Y-8222000D02*
X21034000Y-8302000D01*
X21034000Y-8302000D02*
G75*
G03*
X21094000Y-8302000I30000J0D01*
G01*
X21094000Y-8680000D02*
G75*
G02*
X21034000Y-8680000I-30000J0D01*
G01*
X21034000Y-8680000D02*
G75*
G02*
X21094000Y-8680000I30000J0D01*
G01*
X21094000Y-8735000D02*
X21094000Y-8625000D01*
X21034000Y-8625000D02*
G75*
G02*
X21094000Y-8625000I30000J0D01*
G01*
X21034000Y-8625000D02*
X21034000Y-8735000D01*
X21034000Y-8735000D02*
G75*
G03*
X21094000Y-8735000I30000J0D01*
G01*
X19300000Y-8350000D02*
X19300000Y-8450000D01*
X19250000Y-8400000D02*
X19350000Y-8400000D01*
X19300000Y-9366000D02*
X19300000Y-9466000D01*
X19250000Y-9416000D02*
X19350000Y-9416000D01*
X19554000Y-8350000D02*
X19554000Y-8450000D01*
X19504000Y-8400000D02*
X19604000Y-8400000D01*
X19554000Y-9366000D02*
X19554000Y-9466000D01*
X19504000Y-9416000D02*
X19604000Y-9416000D01*
X19970000Y-9550000D02*
X19970000Y-9650000D01*
X19920000Y-9600000D02*
X20020000Y-9600000D01*
X20224000Y-9550000D02*
X20224000Y-9650000D01*
X20174000Y-9600000D02*
X20274000Y-9600000D01*
X20478000Y-9550000D02*
X20478000Y-9650000D01*
X20428000Y-9600000D02*
X20528000Y-9600000D01*
X21747000Y-9550000D02*
X21747000Y-9650000D01*
X21697000Y-9600000D02*
X21797000Y-9600000D01*
X22001000Y-9550000D02*
X22001000Y-9650000D01*
X21951000Y-9600000D02*
X22051000Y-9600000D01*
X22255000Y-9550000D02*
X22255000Y-9650000D01*
X22205000Y-9600000D02*
X22305000Y-9600000D01*
X22690000Y-9140000D02*
X22690000Y-9240000D01*
X22640000Y-9190000D02*
X22740000Y-9190000D01*
X22944000Y-9140000D02*
X22944000Y-9240000D01*
X22894000Y-9190000D02*
X22994000Y-9190000D01*
X23198000Y-9140000D02*
X23198000Y-9240000D01*
X23148000Y-9190000D02*
X23248000Y-9190000D01*
X23800000Y-8350000D02*
X23800000Y-8450000D01*
X23750000Y-8400000D02*
X23850000Y-8400000D01*
X23800000Y-9366000D02*
X23800000Y-9466000D01*
X23750000Y-9416000D02*
X23850000Y-9416000D01*
X24054000Y-8350000D02*
X24054000Y-8450000D01*
X24004000Y-8400000D02*
X24104000Y-8400000D01*
X24054000Y-9366000D02*
X24054000Y-9466000D01*
X24004000Y-9416000D02*
X24104000Y-9416000D01*
D11*
X19283277Y-10313984D02*
X19283277Y-10113984D01*
X19283277Y-10113984D02*
X19330896Y-10113984D01*
X19330896Y-10113984D02*
X19359467Y-10123508D01*
X19359467Y-10123508D02*
X19378515Y-10142555D01*
X19378515Y-10142555D02*
X19388039Y-10161603D01*
X19388039Y-10161603D02*
X19397563Y-10199698D01*
X19397563Y-10199698D02*
X19397563Y-10228270D01*
X19397563Y-10228270D02*
X19388039Y-10266365D01*
X19388039Y-10266365D02*
X19378515Y-10285412D01*
X19378515Y-10285412D02*
X19359467Y-10304460D01*
X19359467Y-10304460D02*
X19330896Y-10313984D01*
X19330896Y-10313984D02*
X19283277Y-10313984D01*
X19483277Y-10313984D02*
X19483277Y-10180650D01*
X19483277Y-10218746D02*
X19492801Y-10199698D01*
X19492801Y-10199698D02*
X19502324Y-10190174D01*
X19502324Y-10190174D02*
X19521372Y-10180650D01*
X19521372Y-10180650D02*
X19540420Y-10180650D01*
X19607086Y-10313984D02*
X19607086Y-10180650D01*
X19607086Y-10113984D02*
X19597563Y-10123508D01*
X19597563Y-10123508D02*
X19607086Y-10133031D01*
X19607086Y-10133031D02*
X19616610Y-10123508D01*
X19616610Y-10123508D02*
X19607086Y-10113984D01*
X19607086Y-10113984D02*
X19607086Y-10133031D01*
X19730896Y-10313984D02*
X19711848Y-10304460D01*
X19711848Y-10304460D02*
X19702324Y-10285412D01*
X19702324Y-10285412D02*
X19702324Y-10113984D01*
X19835658Y-10313984D02*
X19816610Y-10304460D01*
X19816610Y-10304460D02*
X19807086Y-10285412D01*
X19807086Y-10285412D02*
X19807086Y-10113984D01*
X20064229Y-10313984D02*
X20064229Y-10113984D01*
X20064229Y-10113984D02*
X20130896Y-10256841D01*
X20130896Y-10256841D02*
X20197563Y-10113984D01*
X20197563Y-10113984D02*
X20197563Y-10313984D01*
X20378515Y-10313984D02*
X20378515Y-10209222D01*
X20378515Y-10209222D02*
X20368991Y-10190174D01*
X20368991Y-10190174D02*
X20349944Y-10180650D01*
X20349944Y-10180650D02*
X20311848Y-10180650D01*
X20311848Y-10180650D02*
X20292801Y-10190174D01*
X20378515Y-10304460D02*
X20359467Y-10313984D01*
X20359467Y-10313984D02*
X20311848Y-10313984D01*
X20311848Y-10313984D02*
X20292801Y-10304460D01*
X20292801Y-10304460D02*
X20283277Y-10285412D01*
X20283277Y-10285412D02*
X20283277Y-10266365D01*
X20283277Y-10266365D02*
X20292801Y-10247317D01*
X20292801Y-10247317D02*
X20311848Y-10237793D01*
X20311848Y-10237793D02*
X20359467Y-10237793D01*
X20359467Y-10237793D02*
X20378515Y-10228270D01*
X20473753Y-10180650D02*
X20473753Y-10380650D01*
X20473753Y-10190174D02*
X20492801Y-10180650D01*
X20492801Y-10180650D02*
X20530896Y-10180650D01*
X20530896Y-10180650D02*
X20549944Y-10190174D01*
X20549944Y-10190174D02*
X20559467Y-10199698D01*
X20559467Y-10199698D02*
X20568991Y-10218746D01*
X20568991Y-10218746D02*
X20568991Y-10275889D01*
X20568991Y-10275889D02*
X20559467Y-10294936D01*
X20559467Y-10294936D02*
X20549944Y-10304460D01*
X20549944Y-10304460D02*
X20530896Y-10313984D01*
X20530896Y-10313984D02*
X20492801Y-10313984D01*
X20492801Y-10313984D02*
X20473753Y-10304460D01*
X20654705Y-10294936D02*
X20664229Y-10304460D01*
X20664229Y-10304460D02*
X20654705Y-10313984D01*
X20654705Y-10313984D02*
X20645182Y-10304460D01*
X20645182Y-10304460D02*
X20654705Y-10294936D01*
X20654705Y-10294936D02*
X20654705Y-10313984D01*
X20654705Y-10190174D02*
X20664229Y-10199698D01*
X20664229Y-10199698D02*
X20654705Y-10209222D01*
X20654705Y-10209222D02*
X20645182Y-10199698D01*
X20645182Y-10199698D02*
X20654705Y-10190174D01*
X20654705Y-10190174D02*
X20654705Y-10209222D01*
D12*
X18992500Y-10627500D02*
X19022500Y-10657500D01*
X19022500Y-10627500D02*
X18992500Y-10657500D01*
D11*
X19321372Y-10533984D02*
X19340420Y-10533984D01*
X19340420Y-10533984D02*
X19359467Y-10543508D01*
X19359467Y-10543508D02*
X19368991Y-10553031D01*
X19368991Y-10553031D02*
X19378515Y-10572079D01*
X19378515Y-10572079D02*
X19388039Y-10610174D01*
X19388039Y-10610174D02*
X19388039Y-10657793D01*
X19388039Y-10657793D02*
X19378515Y-10695889D01*
X19378515Y-10695889D02*
X19368991Y-10714936D01*
X19368991Y-10714936D02*
X19359467Y-10724460D01*
X19359467Y-10724460D02*
X19340420Y-10733984D01*
X19340420Y-10733984D02*
X19321372Y-10733984D01*
X19321372Y-10733984D02*
X19302324Y-10724460D01*
X19302324Y-10724460D02*
X19292801Y-10714936D01*
X19292801Y-10714936D02*
X19283277Y-10695889D01*
X19283277Y-10695889D02*
X19273753Y-10657793D01*
X19273753Y-10657793D02*
X19273753Y-10610174D01*
X19273753Y-10610174D02*
X19283277Y-10572079D01*
X19283277Y-10572079D02*
X19292801Y-10553031D01*
X19292801Y-10553031D02*
X19302324Y-10543508D01*
X19302324Y-10543508D02*
X19321372Y-10533984D01*
X19473753Y-10714936D02*
X19483277Y-10724460D01*
X19483277Y-10724460D02*
X19473753Y-10733984D01*
X19473753Y-10733984D02*
X19464229Y-10724460D01*
X19464229Y-10724460D02*
X19473753Y-10714936D01*
X19473753Y-10714936D02*
X19473753Y-10733984D01*
X19549944Y-10533984D02*
X19673753Y-10533984D01*
X19673753Y-10533984D02*
X19607086Y-10610174D01*
X19607086Y-10610174D02*
X19635658Y-10610174D01*
X19635658Y-10610174D02*
X19654705Y-10619698D01*
X19654705Y-10619698D02*
X19664229Y-10629222D01*
X19664229Y-10629222D02*
X19673753Y-10648270D01*
X19673753Y-10648270D02*
X19673753Y-10695889D01*
X19673753Y-10695889D02*
X19664229Y-10714936D01*
X19664229Y-10714936D02*
X19654705Y-10724460D01*
X19654705Y-10724460D02*
X19635658Y-10733984D01*
X19635658Y-10733984D02*
X19578515Y-10733984D01*
X19578515Y-10733984D02*
X19559467Y-10724460D01*
X19559467Y-10724460D02*
X19549944Y-10714936D01*
X19797563Y-10533984D02*
X19816610Y-10533984D01*
X19816610Y-10533984D02*
X19835658Y-10543508D01*
X19835658Y-10543508D02*
X19845182Y-10553031D01*
X19845182Y-10553031D02*
X19854705Y-10572079D01*
X19854705Y-10572079D02*
X19864229Y-10610174D01*
X19864229Y-10610174D02*
X19864229Y-10657793D01*
X19864229Y-10657793D02*
X19854705Y-10695889D01*
X19854705Y-10695889D02*
X19845182Y-10714936D01*
X19845182Y-10714936D02*
X19835658Y-10724460D01*
X19835658Y-10724460D02*
X19816610Y-10733984D01*
X19816610Y-10733984D02*
X19797563Y-10733984D01*
X19797563Y-10733984D02*
X19778515Y-10724460D01*
X19778515Y-10724460D02*
X19768991Y-10714936D01*
X19768991Y-10714936D02*
X19759467Y-10695889D01*
X19759467Y-10695889D02*
X19749944Y-10657793D01*
X19749944Y-10657793D02*
X19749944Y-10610174D01*
X19749944Y-10610174D02*
X19759467Y-10572079D01*
X19759467Y-10572079D02*
X19768991Y-10553031D01*
X19768991Y-10553031D02*
X19778515Y-10543508D01*
X19778515Y-10543508D02*
X19797563Y-10533984D01*
X19988039Y-10533984D02*
X20007086Y-10533984D01*
X20007086Y-10533984D02*
X20026134Y-10543508D01*
X20026134Y-10543508D02*
X20035658Y-10553031D01*
X20035658Y-10553031D02*
X20045182Y-10572079D01*
X20045182Y-10572079D02*
X20054705Y-10610174D01*
X20054705Y-10610174D02*
X20054705Y-10657793D01*
X20054705Y-10657793D02*
X20045182Y-10695889D01*
X20045182Y-10695889D02*
X20035658Y-10714936D01*
X20035658Y-10714936D02*
X20026134Y-10724460D01*
X20026134Y-10724460D02*
X20007086Y-10733984D01*
X20007086Y-10733984D02*
X19988039Y-10733984D01*
X19988039Y-10733984D02*
X19968991Y-10724460D01*
X19968991Y-10724460D02*
X19959467Y-10714936D01*
X19959467Y-10714936D02*
X19949944Y-10695889D01*
X19949944Y-10695889D02*
X19940420Y-10657793D01*
X19940420Y-10657793D02*
X19940420Y-10610174D01*
X19940420Y-10610174D02*
X19949944Y-10572079D01*
X19949944Y-10572079D02*
X19959467Y-10553031D01*
X19959467Y-10553031D02*
X19968991Y-10543508D01*
X19968991Y-10543508D02*
X19988039Y-10533984D01*
X20140420Y-10733984D02*
X20140420Y-10600650D01*
X20140420Y-10619698D02*
X20149944Y-10610174D01*
X20149944Y-10610174D02*
X20168991Y-10600650D01*
X20168991Y-10600650D02*
X20197563Y-10600650D01*
X20197563Y-10600650D02*
X20216610Y-10610174D01*
X20216610Y-10610174D02*
X20226134Y-10629222D01*
X20226134Y-10629222D02*
X20226134Y-10733984D01*
X20226134Y-10629222D02*
X20235658Y-10610174D01*
X20235658Y-10610174D02*
X20254705Y-10600650D01*
X20254705Y-10600650D02*
X20283277Y-10600650D01*
X20283277Y-10600650D02*
X20302325Y-10610174D01*
X20302325Y-10610174D02*
X20311848Y-10629222D01*
X20311848Y-10629222D02*
X20311848Y-10733984D01*
X20407086Y-10733984D02*
X20407086Y-10600650D01*
X20407086Y-10619698D02*
X20416610Y-10610174D01*
X20416610Y-10610174D02*
X20435658Y-10600650D01*
X20435658Y-10600650D02*
X20464229Y-10600650D01*
X20464229Y-10600650D02*
X20483277Y-10610174D01*
X20483277Y-10610174D02*
X20492801Y-10629222D01*
X20492801Y-10629222D02*
X20492801Y-10733984D01*
X20492801Y-10629222D02*
X20502325Y-10610174D01*
X20502325Y-10610174D02*
X20521372Y-10600650D01*
X20521372Y-10600650D02*
X20549944Y-10600650D01*
X20549944Y-10600650D02*
X20568991Y-10610174D01*
X20568991Y-10610174D02*
X20578515Y-10629222D01*
X20578515Y-10629222D02*
X20578515Y-10733984D01*
X20968991Y-10524460D02*
X20797563Y-10781603D01*
X21226134Y-10533984D02*
X21245182Y-10533984D01*
X21245182Y-10533984D02*
X21264229Y-10543508D01*
X21264229Y-10543508D02*
X21273753Y-10553031D01*
X21273753Y-10553031D02*
X21283277Y-10572079D01*
X21283277Y-10572079D02*
X21292801Y-10610174D01*
X21292801Y-10610174D02*
X21292801Y-10657793D01*
X21292801Y-10657793D02*
X21283277Y-10695889D01*
X21283277Y-10695889D02*
X21273753Y-10714936D01*
X21273753Y-10714936D02*
X21264229Y-10724460D01*
X21264229Y-10724460D02*
X21245182Y-10733984D01*
X21245182Y-10733984D02*
X21226134Y-10733984D01*
X21226134Y-10733984D02*
X21207087Y-10724460D01*
X21207087Y-10724460D02*
X21197563Y-10714936D01*
X21197563Y-10714936D02*
X21188039Y-10695889D01*
X21188039Y-10695889D02*
X21178515Y-10657793D01*
X21178515Y-10657793D02*
X21178515Y-10610174D01*
X21178515Y-10610174D02*
X21188039Y-10572079D01*
X21188039Y-10572079D02*
X21197563Y-10553031D01*
X21197563Y-10553031D02*
X21207087Y-10543508D01*
X21207087Y-10543508D02*
X21226134Y-10533984D01*
X21378515Y-10714936D02*
X21388039Y-10724460D01*
X21388039Y-10724460D02*
X21378515Y-10733984D01*
X21378515Y-10733984D02*
X21368991Y-10724460D01*
X21368991Y-10724460D02*
X21378515Y-10714936D01*
X21378515Y-10714936D02*
X21378515Y-10733984D01*
X21511848Y-10533984D02*
X21530896Y-10533984D01*
X21530896Y-10533984D02*
X21549944Y-10543508D01*
X21549944Y-10543508D02*
X21559468Y-10553031D01*
X21559468Y-10553031D02*
X21568991Y-10572079D01*
X21568991Y-10572079D02*
X21578515Y-10610174D01*
X21578515Y-10610174D02*
X21578515Y-10657793D01*
X21578515Y-10657793D02*
X21568991Y-10695889D01*
X21568991Y-10695889D02*
X21559468Y-10714936D01*
X21559468Y-10714936D02*
X21549944Y-10724460D01*
X21549944Y-10724460D02*
X21530896Y-10733984D01*
X21530896Y-10733984D02*
X21511848Y-10733984D01*
X21511848Y-10733984D02*
X21492801Y-10724460D01*
X21492801Y-10724460D02*
X21483277Y-10714936D01*
X21483277Y-10714936D02*
X21473753Y-10695889D01*
X21473753Y-10695889D02*
X21464229Y-10657793D01*
X21464229Y-10657793D02*
X21464229Y-10610174D01*
X21464229Y-10610174D02*
X21473753Y-10572079D01*
X21473753Y-10572079D02*
X21483277Y-10553031D01*
X21483277Y-10553031D02*
X21492801Y-10543508D01*
X21492801Y-10543508D02*
X21511848Y-10533984D01*
X21768991Y-10733984D02*
X21654706Y-10733984D01*
X21711848Y-10733984D02*
X21711848Y-10533984D01*
X21711848Y-10533984D02*
X21692801Y-10562555D01*
X21692801Y-10562555D02*
X21673753Y-10581603D01*
X21673753Y-10581603D02*
X21654706Y-10591127D01*
X21959468Y-10733984D02*
X21845182Y-10733984D01*
X21902325Y-10733984D02*
X21902325Y-10533984D01*
X21902325Y-10533984D02*
X21883277Y-10562555D01*
X21883277Y-10562555D02*
X21864229Y-10581603D01*
X21864229Y-10581603D02*
X21845182Y-10591127D01*
X22073753Y-10619698D02*
X22054706Y-10610174D01*
X22054706Y-10610174D02*
X22045182Y-10600650D01*
X22045182Y-10600650D02*
X22035658Y-10581603D01*
X22035658Y-10581603D02*
X22035658Y-10572079D01*
X22035658Y-10572079D02*
X22045182Y-10553031D01*
X22045182Y-10553031D02*
X22054706Y-10543508D01*
X22054706Y-10543508D02*
X22073753Y-10533984D01*
X22073753Y-10533984D02*
X22111849Y-10533984D01*
X22111849Y-10533984D02*
X22130896Y-10543508D01*
X22130896Y-10543508D02*
X22140420Y-10553031D01*
X22140420Y-10553031D02*
X22149944Y-10572079D01*
X22149944Y-10572079D02*
X22149944Y-10581603D01*
X22149944Y-10581603D02*
X22140420Y-10600650D01*
X22140420Y-10600650D02*
X22130896Y-10610174D01*
X22130896Y-10610174D02*
X22111849Y-10619698D01*
X22111849Y-10619698D02*
X22073753Y-10619698D01*
X22073753Y-10619698D02*
X22054706Y-10629222D01*
X22054706Y-10629222D02*
X22045182Y-10638746D01*
X22045182Y-10638746D02*
X22035658Y-10657793D01*
X22035658Y-10657793D02*
X22035658Y-10695889D01*
X22035658Y-10695889D02*
X22045182Y-10714936D01*
X22045182Y-10714936D02*
X22054706Y-10724460D01*
X22054706Y-10724460D02*
X22073753Y-10733984D01*
X22073753Y-10733984D02*
X22111849Y-10733984D01*
X22111849Y-10733984D02*
X22130896Y-10724460D01*
X22130896Y-10724460D02*
X22140420Y-10714936D01*
X22140420Y-10714936D02*
X22149944Y-10695889D01*
X22149944Y-10695889D02*
X22149944Y-10657793D01*
X22149944Y-10657793D02*
X22140420Y-10638746D01*
X22140420Y-10638746D02*
X22130896Y-10629222D01*
X22130896Y-10629222D02*
X22111849Y-10619698D01*
X22226134Y-10533984D02*
X22226134Y-10572079D01*
X22302325Y-10533984D02*
X22302325Y-10572079D01*
X22597563Y-10810174D02*
X22588039Y-10800650D01*
X22588039Y-10800650D02*
X22568991Y-10772079D01*
X22568991Y-10772079D02*
X22559468Y-10753031D01*
X22559468Y-10753031D02*
X22549944Y-10724460D01*
X22549944Y-10724460D02*
X22540420Y-10676841D01*
X22540420Y-10676841D02*
X22540420Y-10638746D01*
X22540420Y-10638746D02*
X22549944Y-10591127D01*
X22549944Y-10591127D02*
X22559468Y-10562555D01*
X22559468Y-10562555D02*
X22568991Y-10543508D01*
X22568991Y-10543508D02*
X22588039Y-10514936D01*
X22588039Y-10514936D02*
X22597563Y-10505412D01*
X22654706Y-10533984D02*
X22778515Y-10533984D01*
X22778515Y-10533984D02*
X22711848Y-10610174D01*
X22711848Y-10610174D02*
X22740420Y-10610174D01*
X22740420Y-10610174D02*
X22759468Y-10619698D01*
X22759468Y-10619698D02*
X22768991Y-10629222D01*
X22768991Y-10629222D02*
X22778515Y-10648270D01*
X22778515Y-10648270D02*
X22778515Y-10695889D01*
X22778515Y-10695889D02*
X22768991Y-10714936D01*
X22768991Y-10714936D02*
X22759468Y-10724460D01*
X22759468Y-10724460D02*
X22740420Y-10733984D01*
X22740420Y-10733984D02*
X22683277Y-10733984D01*
X22683277Y-10733984D02*
X22664229Y-10724460D01*
X22664229Y-10724460D02*
X22654706Y-10714936D01*
X22845182Y-10533984D02*
X22968991Y-10533984D01*
X22968991Y-10533984D02*
X22902325Y-10610174D01*
X22902325Y-10610174D02*
X22930896Y-10610174D01*
X22930896Y-10610174D02*
X22949944Y-10619698D01*
X22949944Y-10619698D02*
X22959468Y-10629222D01*
X22959468Y-10629222D02*
X22968991Y-10648270D01*
X22968991Y-10648270D02*
X22968991Y-10695889D01*
X22968991Y-10695889D02*
X22959468Y-10714936D01*
X22959468Y-10714936D02*
X22949944Y-10724460D01*
X22949944Y-10724460D02*
X22930896Y-10733984D01*
X22930896Y-10733984D02*
X22873753Y-10733984D01*
X22873753Y-10733984D02*
X22854706Y-10724460D01*
X22854706Y-10724460D02*
X22845182Y-10714936D01*
X23207087Y-10733984D02*
X23207087Y-10533984D01*
X23292801Y-10733984D02*
X23292801Y-10629222D01*
X23292801Y-10629222D02*
X23283277Y-10610174D01*
X23283277Y-10610174D02*
X23264230Y-10600650D01*
X23264230Y-10600650D02*
X23235658Y-10600650D01*
X23235658Y-10600650D02*
X23216610Y-10610174D01*
X23216610Y-10610174D02*
X23207087Y-10619698D01*
X23416610Y-10733984D02*
X23397563Y-10724460D01*
X23397563Y-10724460D02*
X23388039Y-10714936D01*
X23388039Y-10714936D02*
X23378515Y-10695889D01*
X23378515Y-10695889D02*
X23378515Y-10638746D01*
X23378515Y-10638746D02*
X23388039Y-10619698D01*
X23388039Y-10619698D02*
X23397563Y-10610174D01*
X23397563Y-10610174D02*
X23416610Y-10600650D01*
X23416610Y-10600650D02*
X23445182Y-10600650D01*
X23445182Y-10600650D02*
X23464230Y-10610174D01*
X23464230Y-10610174D02*
X23473753Y-10619698D01*
X23473753Y-10619698D02*
X23483277Y-10638746D01*
X23483277Y-10638746D02*
X23483277Y-10695889D01*
X23483277Y-10695889D02*
X23473753Y-10714936D01*
X23473753Y-10714936D02*
X23464230Y-10724460D01*
X23464230Y-10724460D02*
X23445182Y-10733984D01*
X23445182Y-10733984D02*
X23416610Y-10733984D01*
X23597563Y-10733984D02*
X23578515Y-10724460D01*
X23578515Y-10724460D02*
X23568991Y-10705412D01*
X23568991Y-10705412D02*
X23568991Y-10533984D01*
X23749944Y-10724460D02*
X23730896Y-10733984D01*
X23730896Y-10733984D02*
X23692801Y-10733984D01*
X23692801Y-10733984D02*
X23673753Y-10724460D01*
X23673753Y-10724460D02*
X23664230Y-10705412D01*
X23664230Y-10705412D02*
X23664230Y-10629222D01*
X23664230Y-10629222D02*
X23673753Y-10610174D01*
X23673753Y-10610174D02*
X23692801Y-10600650D01*
X23692801Y-10600650D02*
X23730896Y-10600650D01*
X23730896Y-10600650D02*
X23749944Y-10610174D01*
X23749944Y-10610174D02*
X23759468Y-10629222D01*
X23759468Y-10629222D02*
X23759468Y-10648270D01*
X23759468Y-10648270D02*
X23664230Y-10667317D01*
X23835658Y-10724460D02*
X23854706Y-10733984D01*
X23854706Y-10733984D02*
X23892801Y-10733984D01*
X23892801Y-10733984D02*
X23911849Y-10724460D01*
X23911849Y-10724460D02*
X23921372Y-10705412D01*
X23921372Y-10705412D02*
X23921372Y-10695889D01*
X23921372Y-10695889D02*
X23911849Y-10676841D01*
X23911849Y-10676841D02*
X23892801Y-10667317D01*
X23892801Y-10667317D02*
X23864230Y-10667317D01*
X23864230Y-10667317D02*
X23845182Y-10657793D01*
X23845182Y-10657793D02*
X23835658Y-10638746D01*
X23835658Y-10638746D02*
X23835658Y-10629222D01*
X23835658Y-10629222D02*
X23845182Y-10610174D01*
X23845182Y-10610174D02*
X23864230Y-10600650D01*
X23864230Y-10600650D02*
X23892801Y-10600650D01*
X23892801Y-10600650D02*
X23911849Y-10610174D01*
X23988039Y-10810174D02*
X23997563Y-10800650D01*
X23997563Y-10800650D02*
X24016611Y-10772079D01*
X24016611Y-10772079D02*
X24026134Y-10753031D01*
X24026134Y-10753031D02*
X24035658Y-10724460D01*
X24035658Y-10724460D02*
X24045182Y-10676841D01*
X24045182Y-10676841D02*
X24045182Y-10638746D01*
X24045182Y-10638746D02*
X24035658Y-10591127D01*
X24035658Y-10591127D02*
X24026134Y-10562555D01*
X24026134Y-10562555D02*
X24016611Y-10543508D01*
X24016611Y-10543508D02*
X23997563Y-10514936D01*
X23997563Y-10514936D02*
X23988039Y-10505412D01*
D12*
X19022500Y-10906500D02*
G75*
G02*
X18962500Y-10906500I-30000J0D01*
G01*
X18962500Y-10906500D02*
G75*
G02*
X19022500Y-10906500I30000J0D01*
G01*
D11*
X19321372Y-10797984D02*
X19340420Y-10797984D01*
X19340420Y-10797984D02*
X19359467Y-10807508D01*
X19359467Y-10807508D02*
X19368991Y-10817031D01*
X19368991Y-10817031D02*
X19378515Y-10836079D01*
X19378515Y-10836079D02*
X19388039Y-10874174D01*
X19388039Y-10874174D02*
X19388039Y-10921793D01*
X19388039Y-10921793D02*
X19378515Y-10959889D01*
X19378515Y-10959889D02*
X19368991Y-10978936D01*
X19368991Y-10978936D02*
X19359467Y-10988460D01*
X19359467Y-10988460D02*
X19340420Y-10997984D01*
X19340420Y-10997984D02*
X19321372Y-10997984D01*
X19321372Y-10997984D02*
X19302324Y-10988460D01*
X19302324Y-10988460D02*
X19292801Y-10978936D01*
X19292801Y-10978936D02*
X19283277Y-10959889D01*
X19283277Y-10959889D02*
X19273753Y-10921793D01*
X19273753Y-10921793D02*
X19273753Y-10874174D01*
X19273753Y-10874174D02*
X19283277Y-10836079D01*
X19283277Y-10836079D02*
X19292801Y-10817031D01*
X19292801Y-10817031D02*
X19302324Y-10807508D01*
X19302324Y-10807508D02*
X19321372Y-10797984D01*
X19473753Y-10978936D02*
X19483277Y-10988460D01*
X19483277Y-10988460D02*
X19473753Y-10997984D01*
X19473753Y-10997984D02*
X19464229Y-10988460D01*
X19464229Y-10988460D02*
X19473753Y-10978936D01*
X19473753Y-10978936D02*
X19473753Y-10997984D01*
X19654705Y-10797984D02*
X19616610Y-10797984D01*
X19616610Y-10797984D02*
X19597563Y-10807508D01*
X19597563Y-10807508D02*
X19588039Y-10817031D01*
X19588039Y-10817031D02*
X19568991Y-10845603D01*
X19568991Y-10845603D02*
X19559467Y-10883698D01*
X19559467Y-10883698D02*
X19559467Y-10959889D01*
X19559467Y-10959889D02*
X19568991Y-10978936D01*
X19568991Y-10978936D02*
X19578515Y-10988460D01*
X19578515Y-10988460D02*
X19597563Y-10997984D01*
X19597563Y-10997984D02*
X19635658Y-10997984D01*
X19635658Y-10997984D02*
X19654705Y-10988460D01*
X19654705Y-10988460D02*
X19664229Y-10978936D01*
X19664229Y-10978936D02*
X19673753Y-10959889D01*
X19673753Y-10959889D02*
X19673753Y-10912270D01*
X19673753Y-10912270D02*
X19664229Y-10893222D01*
X19664229Y-10893222D02*
X19654705Y-10883698D01*
X19654705Y-10883698D02*
X19635658Y-10874174D01*
X19635658Y-10874174D02*
X19597563Y-10874174D01*
X19597563Y-10874174D02*
X19578515Y-10883698D01*
X19578515Y-10883698D02*
X19568991Y-10893222D01*
X19568991Y-10893222D02*
X19559467Y-10912270D01*
X19797563Y-10797984D02*
X19816610Y-10797984D01*
X19816610Y-10797984D02*
X19835658Y-10807508D01*
X19835658Y-10807508D02*
X19845182Y-10817031D01*
X19845182Y-10817031D02*
X19854705Y-10836079D01*
X19854705Y-10836079D02*
X19864229Y-10874174D01*
X19864229Y-10874174D02*
X19864229Y-10921793D01*
X19864229Y-10921793D02*
X19854705Y-10959889D01*
X19854705Y-10959889D02*
X19845182Y-10978936D01*
X19845182Y-10978936D02*
X19835658Y-10988460D01*
X19835658Y-10988460D02*
X19816610Y-10997984D01*
X19816610Y-10997984D02*
X19797563Y-10997984D01*
X19797563Y-10997984D02*
X19778515Y-10988460D01*
X19778515Y-10988460D02*
X19768991Y-10978936D01*
X19768991Y-10978936D02*
X19759467Y-10959889D01*
X19759467Y-10959889D02*
X19749944Y-10921793D01*
X19749944Y-10921793D02*
X19749944Y-10874174D01*
X19749944Y-10874174D02*
X19759467Y-10836079D01*
X19759467Y-10836079D02*
X19768991Y-10817031D01*
X19768991Y-10817031D02*
X19778515Y-10807508D01*
X19778515Y-10807508D02*
X19797563Y-10797984D01*
X19988039Y-10797984D02*
X20007086Y-10797984D01*
X20007086Y-10797984D02*
X20026134Y-10807508D01*
X20026134Y-10807508D02*
X20035658Y-10817031D01*
X20035658Y-10817031D02*
X20045182Y-10836079D01*
X20045182Y-10836079D02*
X20054705Y-10874174D01*
X20054705Y-10874174D02*
X20054705Y-10921793D01*
X20054705Y-10921793D02*
X20045182Y-10959889D01*
X20045182Y-10959889D02*
X20035658Y-10978936D01*
X20035658Y-10978936D02*
X20026134Y-10988460D01*
X20026134Y-10988460D02*
X20007086Y-10997984D01*
X20007086Y-10997984D02*
X19988039Y-10997984D01*
X19988039Y-10997984D02*
X19968991Y-10988460D01*
X19968991Y-10988460D02*
X19959467Y-10978936D01*
X19959467Y-10978936D02*
X19949944Y-10959889D01*
X19949944Y-10959889D02*
X19940420Y-10921793D01*
X19940420Y-10921793D02*
X19940420Y-10874174D01*
X19940420Y-10874174D02*
X19949944Y-10836079D01*
X19949944Y-10836079D02*
X19959467Y-10817031D01*
X19959467Y-10817031D02*
X19968991Y-10807508D01*
X19968991Y-10807508D02*
X19988039Y-10797984D01*
X20140420Y-10997984D02*
X20140420Y-10864650D01*
X20140420Y-10883698D02*
X20149944Y-10874174D01*
X20149944Y-10874174D02*
X20168991Y-10864650D01*
X20168991Y-10864650D02*
X20197563Y-10864650D01*
X20197563Y-10864650D02*
X20216610Y-10874174D01*
X20216610Y-10874174D02*
X20226134Y-10893222D01*
X20226134Y-10893222D02*
X20226134Y-10997984D01*
X20226134Y-10893222D02*
X20235658Y-10874174D01*
X20235658Y-10874174D02*
X20254705Y-10864650D01*
X20254705Y-10864650D02*
X20283277Y-10864650D01*
X20283277Y-10864650D02*
X20302325Y-10874174D01*
X20302325Y-10874174D02*
X20311848Y-10893222D01*
X20311848Y-10893222D02*
X20311848Y-10997984D01*
X20407086Y-10997984D02*
X20407086Y-10864650D01*
X20407086Y-10883698D02*
X20416610Y-10874174D01*
X20416610Y-10874174D02*
X20435658Y-10864650D01*
X20435658Y-10864650D02*
X20464229Y-10864650D01*
X20464229Y-10864650D02*
X20483277Y-10874174D01*
X20483277Y-10874174D02*
X20492801Y-10893222D01*
X20492801Y-10893222D02*
X20492801Y-10997984D01*
X20492801Y-10893222D02*
X20502325Y-10874174D01*
X20502325Y-10874174D02*
X20521372Y-10864650D01*
X20521372Y-10864650D02*
X20549944Y-10864650D01*
X20549944Y-10864650D02*
X20568991Y-10874174D01*
X20568991Y-10874174D02*
X20578515Y-10893222D01*
X20578515Y-10893222D02*
X20578515Y-10997984D01*
X20968991Y-10788460D02*
X20797563Y-11045603D01*
X21226134Y-10797984D02*
X21245182Y-10797984D01*
X21245182Y-10797984D02*
X21264229Y-10807508D01*
X21264229Y-10807508D02*
X21273753Y-10817031D01*
X21273753Y-10817031D02*
X21283277Y-10836079D01*
X21283277Y-10836079D02*
X21292801Y-10874174D01*
X21292801Y-10874174D02*
X21292801Y-10921793D01*
X21292801Y-10921793D02*
X21283277Y-10959889D01*
X21283277Y-10959889D02*
X21273753Y-10978936D01*
X21273753Y-10978936D02*
X21264229Y-10988460D01*
X21264229Y-10988460D02*
X21245182Y-10997984D01*
X21245182Y-10997984D02*
X21226134Y-10997984D01*
X21226134Y-10997984D02*
X21207087Y-10988460D01*
X21207087Y-10988460D02*
X21197563Y-10978936D01*
X21197563Y-10978936D02*
X21188039Y-10959889D01*
X21188039Y-10959889D02*
X21178515Y-10921793D01*
X21178515Y-10921793D02*
X21178515Y-10874174D01*
X21178515Y-10874174D02*
X21188039Y-10836079D01*
X21188039Y-10836079D02*
X21197563Y-10817031D01*
X21197563Y-10817031D02*
X21207087Y-10807508D01*
X21207087Y-10807508D02*
X21226134Y-10797984D01*
X21378515Y-10978936D02*
X21388039Y-10988460D01*
X21388039Y-10988460D02*
X21378515Y-10997984D01*
X21378515Y-10997984D02*
X21368991Y-10988460D01*
X21368991Y-10988460D02*
X21378515Y-10978936D01*
X21378515Y-10978936D02*
X21378515Y-10997984D01*
X21511848Y-10797984D02*
X21530896Y-10797984D01*
X21530896Y-10797984D02*
X21549944Y-10807508D01*
X21549944Y-10807508D02*
X21559468Y-10817031D01*
X21559468Y-10817031D02*
X21568991Y-10836079D01*
X21568991Y-10836079D02*
X21578515Y-10874174D01*
X21578515Y-10874174D02*
X21578515Y-10921793D01*
X21578515Y-10921793D02*
X21568991Y-10959889D01*
X21568991Y-10959889D02*
X21559468Y-10978936D01*
X21559468Y-10978936D02*
X21549944Y-10988460D01*
X21549944Y-10988460D02*
X21530896Y-10997984D01*
X21530896Y-10997984D02*
X21511848Y-10997984D01*
X21511848Y-10997984D02*
X21492801Y-10988460D01*
X21492801Y-10988460D02*
X21483277Y-10978936D01*
X21483277Y-10978936D02*
X21473753Y-10959889D01*
X21473753Y-10959889D02*
X21464229Y-10921793D01*
X21464229Y-10921793D02*
X21464229Y-10874174D01*
X21464229Y-10874174D02*
X21473753Y-10836079D01*
X21473753Y-10836079D02*
X21483277Y-10817031D01*
X21483277Y-10817031D02*
X21492801Y-10807508D01*
X21492801Y-10807508D02*
X21511848Y-10797984D01*
X21654706Y-10817031D02*
X21664229Y-10807508D01*
X21664229Y-10807508D02*
X21683277Y-10797984D01*
X21683277Y-10797984D02*
X21730896Y-10797984D01*
X21730896Y-10797984D02*
X21749944Y-10807508D01*
X21749944Y-10807508D02*
X21759468Y-10817031D01*
X21759468Y-10817031D02*
X21768991Y-10836079D01*
X21768991Y-10836079D02*
X21768991Y-10855127D01*
X21768991Y-10855127D02*
X21759468Y-10883698D01*
X21759468Y-10883698D02*
X21645182Y-10997984D01*
X21645182Y-10997984D02*
X21768991Y-10997984D01*
X21835658Y-10797984D02*
X21959468Y-10797984D01*
X21959468Y-10797984D02*
X21892801Y-10874174D01*
X21892801Y-10874174D02*
X21921372Y-10874174D01*
X21921372Y-10874174D02*
X21940420Y-10883698D01*
X21940420Y-10883698D02*
X21949944Y-10893222D01*
X21949944Y-10893222D02*
X21959468Y-10912270D01*
X21959468Y-10912270D02*
X21959468Y-10959889D01*
X21959468Y-10959889D02*
X21949944Y-10978936D01*
X21949944Y-10978936D02*
X21940420Y-10988460D01*
X21940420Y-10988460D02*
X21921372Y-10997984D01*
X21921372Y-10997984D02*
X21864229Y-10997984D01*
X21864229Y-10997984D02*
X21845182Y-10988460D01*
X21845182Y-10988460D02*
X21835658Y-10978936D01*
X22130896Y-10797984D02*
X22092801Y-10797984D01*
X22092801Y-10797984D02*
X22073753Y-10807508D01*
X22073753Y-10807508D02*
X22064229Y-10817031D01*
X22064229Y-10817031D02*
X22045182Y-10845603D01*
X22045182Y-10845603D02*
X22035658Y-10883698D01*
X22035658Y-10883698D02*
X22035658Y-10959889D01*
X22035658Y-10959889D02*
X22045182Y-10978936D01*
X22045182Y-10978936D02*
X22054706Y-10988460D01*
X22054706Y-10988460D02*
X22073753Y-10997984D01*
X22073753Y-10997984D02*
X22111849Y-10997984D01*
X22111849Y-10997984D02*
X22130896Y-10988460D01*
X22130896Y-10988460D02*
X22140420Y-10978936D01*
X22140420Y-10978936D02*
X22149944Y-10959889D01*
X22149944Y-10959889D02*
X22149944Y-10912270D01*
X22149944Y-10912270D02*
X22140420Y-10893222D01*
X22140420Y-10893222D02*
X22130896Y-10883698D01*
X22130896Y-10883698D02*
X22111849Y-10874174D01*
X22111849Y-10874174D02*
X22073753Y-10874174D01*
X22073753Y-10874174D02*
X22054706Y-10883698D01*
X22054706Y-10883698D02*
X22045182Y-10893222D01*
X22045182Y-10893222D02*
X22035658Y-10912270D01*
X22226134Y-10797984D02*
X22226134Y-10836079D01*
X22302325Y-10797984D02*
X22302325Y-10836079D01*
X22597563Y-11074174D02*
X22588039Y-11064650D01*
X22588039Y-11064650D02*
X22568991Y-11036079D01*
X22568991Y-11036079D02*
X22559468Y-11017031D01*
X22559468Y-11017031D02*
X22549944Y-10988460D01*
X22549944Y-10988460D02*
X22540420Y-10940841D01*
X22540420Y-10940841D02*
X22540420Y-10902746D01*
X22540420Y-10902746D02*
X22549944Y-10855127D01*
X22549944Y-10855127D02*
X22559468Y-10826555D01*
X22559468Y-10826555D02*
X22568991Y-10807508D01*
X22568991Y-10807508D02*
X22588039Y-10778936D01*
X22588039Y-10778936D02*
X22597563Y-10769412D01*
X22711848Y-10797984D02*
X22730896Y-10797984D01*
X22730896Y-10797984D02*
X22749944Y-10807508D01*
X22749944Y-10807508D02*
X22759468Y-10817031D01*
X22759468Y-10817031D02*
X22768991Y-10836079D01*
X22768991Y-10836079D02*
X22778515Y-10874174D01*
X22778515Y-10874174D02*
X22778515Y-10921793D01*
X22778515Y-10921793D02*
X22768991Y-10959889D01*
X22768991Y-10959889D02*
X22759468Y-10978936D01*
X22759468Y-10978936D02*
X22749944Y-10988460D01*
X22749944Y-10988460D02*
X22730896Y-10997984D01*
X22730896Y-10997984D02*
X22711848Y-10997984D01*
X22711848Y-10997984D02*
X22692801Y-10988460D01*
X22692801Y-10988460D02*
X22683277Y-10978936D01*
X22683277Y-10978936D02*
X22673753Y-10959889D01*
X22673753Y-10959889D02*
X22664229Y-10921793D01*
X22664229Y-10921793D02*
X22664229Y-10874174D01*
X22664229Y-10874174D02*
X22673753Y-10836079D01*
X22673753Y-10836079D02*
X22683277Y-10817031D01*
X22683277Y-10817031D02*
X22692801Y-10807508D01*
X22692801Y-10807508D02*
X22711848Y-10797984D01*
X23016610Y-10997984D02*
X23016610Y-10797984D01*
X23102325Y-10997984D02*
X23102325Y-10893222D01*
X23102325Y-10893222D02*
X23092801Y-10874174D01*
X23092801Y-10874174D02*
X23073753Y-10864650D01*
X23073753Y-10864650D02*
X23045182Y-10864650D01*
X23045182Y-10864650D02*
X23026134Y-10874174D01*
X23026134Y-10874174D02*
X23016610Y-10883698D01*
X23226134Y-10997984D02*
X23207087Y-10988460D01*
X23207087Y-10988460D02*
X23197563Y-10978936D01*
X23197563Y-10978936D02*
X23188039Y-10959889D01*
X23188039Y-10959889D02*
X23188039Y-10902746D01*
X23188039Y-10902746D02*
X23197563Y-10883698D01*
X23197563Y-10883698D02*
X23207087Y-10874174D01*
X23207087Y-10874174D02*
X23226134Y-10864650D01*
X23226134Y-10864650D02*
X23254706Y-10864650D01*
X23254706Y-10864650D02*
X23273753Y-10874174D01*
X23273753Y-10874174D02*
X23283277Y-10883698D01*
X23283277Y-10883698D02*
X23292801Y-10902746D01*
X23292801Y-10902746D02*
X23292801Y-10959889D01*
X23292801Y-10959889D02*
X23283277Y-10978936D01*
X23283277Y-10978936D02*
X23273753Y-10988460D01*
X23273753Y-10988460D02*
X23254706Y-10997984D01*
X23254706Y-10997984D02*
X23226134Y-10997984D01*
X23407087Y-10997984D02*
X23388039Y-10988460D01*
X23388039Y-10988460D02*
X23378515Y-10969412D01*
X23378515Y-10969412D02*
X23378515Y-10797984D01*
X23559468Y-10988460D02*
X23540420Y-10997984D01*
X23540420Y-10997984D02*
X23502325Y-10997984D01*
X23502325Y-10997984D02*
X23483277Y-10988460D01*
X23483277Y-10988460D02*
X23473753Y-10969412D01*
X23473753Y-10969412D02*
X23473753Y-10893222D01*
X23473753Y-10893222D02*
X23483277Y-10874174D01*
X23483277Y-10874174D02*
X23502325Y-10864650D01*
X23502325Y-10864650D02*
X23540420Y-10864650D01*
X23540420Y-10864650D02*
X23559468Y-10874174D01*
X23559468Y-10874174D02*
X23568991Y-10893222D01*
X23568991Y-10893222D02*
X23568991Y-10912270D01*
X23568991Y-10912270D02*
X23473753Y-10931317D01*
X23645182Y-10988460D02*
X23664230Y-10997984D01*
X23664230Y-10997984D02*
X23702325Y-10997984D01*
X23702325Y-10997984D02*
X23721372Y-10988460D01*
X23721372Y-10988460D02*
X23730896Y-10969412D01*
X23730896Y-10969412D02*
X23730896Y-10959889D01*
X23730896Y-10959889D02*
X23721372Y-10940841D01*
X23721372Y-10940841D02*
X23702325Y-10931317D01*
X23702325Y-10931317D02*
X23673753Y-10931317D01*
X23673753Y-10931317D02*
X23654706Y-10921793D01*
X23654706Y-10921793D02*
X23645182Y-10902746D01*
X23645182Y-10902746D02*
X23645182Y-10893222D01*
X23645182Y-10893222D02*
X23654706Y-10874174D01*
X23654706Y-10874174D02*
X23673753Y-10864650D01*
X23673753Y-10864650D02*
X23702325Y-10864650D01*
X23702325Y-10864650D02*
X23721372Y-10874174D01*
X23968992Y-10921793D02*
X24121373Y-10921793D01*
X24045182Y-10997984D02*
X24045182Y-10845603D01*
X24454706Y-10864650D02*
X24454706Y-10997984D01*
X24407087Y-10788460D02*
X24359468Y-10931317D01*
X24359468Y-10931317D02*
X24483277Y-10931317D01*
X24702325Y-10988460D02*
X24721373Y-10997984D01*
X24721373Y-10997984D02*
X24759468Y-10997984D01*
X24759468Y-10997984D02*
X24778515Y-10988460D01*
X24778515Y-10988460D02*
X24788039Y-10969412D01*
X24788039Y-10969412D02*
X24788039Y-10959889D01*
X24788039Y-10959889D02*
X24778515Y-10940841D01*
X24778515Y-10940841D02*
X24759468Y-10931317D01*
X24759468Y-10931317D02*
X24730896Y-10931317D01*
X24730896Y-10931317D02*
X24711849Y-10921793D01*
X24711849Y-10921793D02*
X24702325Y-10902746D01*
X24702325Y-10902746D02*
X24702325Y-10893222D01*
X24702325Y-10893222D02*
X24711849Y-10874174D01*
X24711849Y-10874174D02*
X24730896Y-10864650D01*
X24730896Y-10864650D02*
X24759468Y-10864650D01*
X24759468Y-10864650D02*
X24778515Y-10874174D01*
X24902325Y-10997984D02*
X24883277Y-10988460D01*
X24883277Y-10988460D02*
X24873754Y-10969412D01*
X24873754Y-10969412D02*
X24873754Y-10797984D01*
X25007087Y-10997984D02*
X24988039Y-10988460D01*
X24988039Y-10988460D02*
X24978515Y-10978936D01*
X24978515Y-10978936D02*
X24968992Y-10959889D01*
X24968992Y-10959889D02*
X24968992Y-10902746D01*
X24968992Y-10902746D02*
X24978515Y-10883698D01*
X24978515Y-10883698D02*
X24988039Y-10874174D01*
X24988039Y-10874174D02*
X25007087Y-10864650D01*
X25007087Y-10864650D02*
X25035658Y-10864650D01*
X25035658Y-10864650D02*
X25054706Y-10874174D01*
X25054706Y-10874174D02*
X25064230Y-10883698D01*
X25064230Y-10883698D02*
X25073754Y-10902746D01*
X25073754Y-10902746D02*
X25073754Y-10959889D01*
X25073754Y-10959889D02*
X25064230Y-10978936D01*
X25064230Y-10978936D02*
X25054706Y-10988460D01*
X25054706Y-10988460D02*
X25035658Y-10997984D01*
X25035658Y-10997984D02*
X25007087Y-10997984D01*
X25130896Y-10864650D02*
X25207087Y-10864650D01*
X25159468Y-10797984D02*
X25159468Y-10969412D01*
X25159468Y-10969412D02*
X25168992Y-10988460D01*
X25168992Y-10988460D02*
X25188039Y-10997984D01*
X25188039Y-10997984D02*
X25207087Y-10997984D01*
X25264230Y-10988460D02*
X25283277Y-10997984D01*
X25283277Y-10997984D02*
X25321373Y-10997984D01*
X25321373Y-10997984D02*
X25340420Y-10988460D01*
X25340420Y-10988460D02*
X25349944Y-10969412D01*
X25349944Y-10969412D02*
X25349944Y-10959889D01*
X25349944Y-10959889D02*
X25340420Y-10940841D01*
X25340420Y-10940841D02*
X25321373Y-10931317D01*
X25321373Y-10931317D02*
X25292801Y-10931317D01*
X25292801Y-10931317D02*
X25273754Y-10921793D01*
X25273754Y-10921793D02*
X25264230Y-10902746D01*
X25264230Y-10902746D02*
X25264230Y-10893222D01*
X25264230Y-10893222D02*
X25273754Y-10874174D01*
X25273754Y-10874174D02*
X25292801Y-10864650D01*
X25292801Y-10864650D02*
X25321373Y-10864650D01*
X25321373Y-10864650D02*
X25340420Y-10874174D01*
X25416611Y-11074174D02*
X25426135Y-11064650D01*
X25426135Y-11064650D02*
X25445182Y-11036079D01*
X25445182Y-11036079D02*
X25454706Y-11017031D01*
X25454706Y-11017031D02*
X25464230Y-10988460D01*
X25464230Y-10988460D02*
X25473754Y-10940841D01*
X25473754Y-10940841D02*
X25473754Y-10902746D01*
X25473754Y-10902746D02*
X25464230Y-10855127D01*
X25464230Y-10855127D02*
X25454706Y-10826555D01*
X25454706Y-10826555D02*
X25445182Y-10807508D01*
X25445182Y-10807508D02*
X25426135Y-10778936D01*
X25426135Y-10778936D02*
X25416611Y-10769412D01*
D12*
X18972500Y-11120500D02*
X18972500Y-11220500D01*
X18922500Y-11170500D02*
X19022500Y-11170500D01*
D11*
X19388039Y-11261984D02*
X19273753Y-11261984D01*
X19330896Y-11261984D02*
X19330896Y-11061984D01*
X19330896Y-11061984D02*
X19311848Y-11090555D01*
X19311848Y-11090555D02*
X19292801Y-11109603D01*
X19292801Y-11109603D02*
X19273753Y-11119127D01*
X19473753Y-11242936D02*
X19483277Y-11252460D01*
X19483277Y-11252460D02*
X19473753Y-11261984D01*
X19473753Y-11261984D02*
X19464229Y-11252460D01*
X19464229Y-11252460D02*
X19473753Y-11242936D01*
X19473753Y-11242936D02*
X19473753Y-11261984D01*
X19607086Y-11061984D02*
X19626134Y-11061984D01*
X19626134Y-11061984D02*
X19645182Y-11071508D01*
X19645182Y-11071508D02*
X19654705Y-11081031D01*
X19654705Y-11081031D02*
X19664229Y-11100079D01*
X19664229Y-11100079D02*
X19673753Y-11138174D01*
X19673753Y-11138174D02*
X19673753Y-11185793D01*
X19673753Y-11185793D02*
X19664229Y-11223888D01*
X19664229Y-11223888D02*
X19654705Y-11242936D01*
X19654705Y-11242936D02*
X19645182Y-11252460D01*
X19645182Y-11252460D02*
X19626134Y-11261984D01*
X19626134Y-11261984D02*
X19607086Y-11261984D01*
X19607086Y-11261984D02*
X19588039Y-11252460D01*
X19588039Y-11252460D02*
X19578515Y-11242936D01*
X19578515Y-11242936D02*
X19568991Y-11223888D01*
X19568991Y-11223888D02*
X19559467Y-11185793D01*
X19559467Y-11185793D02*
X19559467Y-11138174D01*
X19559467Y-11138174D02*
X19568991Y-11100079D01*
X19568991Y-11100079D02*
X19578515Y-11081031D01*
X19578515Y-11081031D02*
X19588039Y-11071508D01*
X19588039Y-11071508D02*
X19607086Y-11061984D01*
X19797563Y-11061984D02*
X19816610Y-11061984D01*
X19816610Y-11061984D02*
X19835658Y-11071508D01*
X19835658Y-11071508D02*
X19845182Y-11081031D01*
X19845182Y-11081031D02*
X19854705Y-11100079D01*
X19854705Y-11100079D02*
X19864229Y-11138174D01*
X19864229Y-11138174D02*
X19864229Y-11185793D01*
X19864229Y-11185793D02*
X19854705Y-11223888D01*
X19854705Y-11223888D02*
X19845182Y-11242936D01*
X19845182Y-11242936D02*
X19835658Y-11252460D01*
X19835658Y-11252460D02*
X19816610Y-11261984D01*
X19816610Y-11261984D02*
X19797563Y-11261984D01*
X19797563Y-11261984D02*
X19778515Y-11252460D01*
X19778515Y-11252460D02*
X19768991Y-11242936D01*
X19768991Y-11242936D02*
X19759467Y-11223888D01*
X19759467Y-11223888D02*
X19749944Y-11185793D01*
X19749944Y-11185793D02*
X19749944Y-11138174D01*
X19749944Y-11138174D02*
X19759467Y-11100079D01*
X19759467Y-11100079D02*
X19768991Y-11081031D01*
X19768991Y-11081031D02*
X19778515Y-11071508D01*
X19778515Y-11071508D02*
X19797563Y-11061984D01*
X19988039Y-11061984D02*
X20007086Y-11061984D01*
X20007086Y-11061984D02*
X20026134Y-11071508D01*
X20026134Y-11071508D02*
X20035658Y-11081031D01*
X20035658Y-11081031D02*
X20045182Y-11100079D01*
X20045182Y-11100079D02*
X20054705Y-11138174D01*
X20054705Y-11138174D02*
X20054705Y-11185793D01*
X20054705Y-11185793D02*
X20045182Y-11223888D01*
X20045182Y-11223888D02*
X20035658Y-11242936D01*
X20035658Y-11242936D02*
X20026134Y-11252460D01*
X20026134Y-11252460D02*
X20007086Y-11261984D01*
X20007086Y-11261984D02*
X19988039Y-11261984D01*
X19988039Y-11261984D02*
X19968991Y-11252460D01*
X19968991Y-11252460D02*
X19959467Y-11242936D01*
X19959467Y-11242936D02*
X19949944Y-11223888D01*
X19949944Y-11223888D02*
X19940420Y-11185793D01*
X19940420Y-11185793D02*
X19940420Y-11138174D01*
X19940420Y-11138174D02*
X19949944Y-11100079D01*
X19949944Y-11100079D02*
X19959467Y-11081031D01*
X19959467Y-11081031D02*
X19968991Y-11071508D01*
X19968991Y-11071508D02*
X19988039Y-11061984D01*
X20140420Y-11261984D02*
X20140420Y-11128650D01*
X20140420Y-11147698D02*
X20149944Y-11138174D01*
X20149944Y-11138174D02*
X20168991Y-11128650D01*
X20168991Y-11128650D02*
X20197563Y-11128650D01*
X20197563Y-11128650D02*
X20216610Y-11138174D01*
X20216610Y-11138174D02*
X20226134Y-11157222D01*
X20226134Y-11157222D02*
X20226134Y-11261984D01*
X20226134Y-11157222D02*
X20235658Y-11138174D01*
X20235658Y-11138174D02*
X20254705Y-11128650D01*
X20254705Y-11128650D02*
X20283277Y-11128650D01*
X20283277Y-11128650D02*
X20302325Y-11138174D01*
X20302325Y-11138174D02*
X20311848Y-11157222D01*
X20311848Y-11157222D02*
X20311848Y-11261984D01*
X20407086Y-11261984D02*
X20407086Y-11128650D01*
X20407086Y-11147698D02*
X20416610Y-11138174D01*
X20416610Y-11138174D02*
X20435658Y-11128650D01*
X20435658Y-11128650D02*
X20464229Y-11128650D01*
X20464229Y-11128650D02*
X20483277Y-11138174D01*
X20483277Y-11138174D02*
X20492801Y-11157222D01*
X20492801Y-11157222D02*
X20492801Y-11261984D01*
X20492801Y-11157222D02*
X20502325Y-11138174D01*
X20502325Y-11138174D02*
X20521372Y-11128650D01*
X20521372Y-11128650D02*
X20549944Y-11128650D01*
X20549944Y-11128650D02*
X20568991Y-11138174D01*
X20568991Y-11138174D02*
X20578515Y-11157222D01*
X20578515Y-11157222D02*
X20578515Y-11261984D01*
X20968991Y-11052460D02*
X20797563Y-11309603D01*
X21226134Y-11061984D02*
X21245182Y-11061984D01*
X21245182Y-11061984D02*
X21264229Y-11071508D01*
X21264229Y-11071508D02*
X21273753Y-11081031D01*
X21273753Y-11081031D02*
X21283277Y-11100079D01*
X21283277Y-11100079D02*
X21292801Y-11138174D01*
X21292801Y-11138174D02*
X21292801Y-11185793D01*
X21292801Y-11185793D02*
X21283277Y-11223888D01*
X21283277Y-11223888D02*
X21273753Y-11242936D01*
X21273753Y-11242936D02*
X21264229Y-11252460D01*
X21264229Y-11252460D02*
X21245182Y-11261984D01*
X21245182Y-11261984D02*
X21226134Y-11261984D01*
X21226134Y-11261984D02*
X21207087Y-11252460D01*
X21207087Y-11252460D02*
X21197563Y-11242936D01*
X21197563Y-11242936D02*
X21188039Y-11223888D01*
X21188039Y-11223888D02*
X21178515Y-11185793D01*
X21178515Y-11185793D02*
X21178515Y-11138174D01*
X21178515Y-11138174D02*
X21188039Y-11100079D01*
X21188039Y-11100079D02*
X21197563Y-11081031D01*
X21197563Y-11081031D02*
X21207087Y-11071508D01*
X21207087Y-11071508D02*
X21226134Y-11061984D01*
X21378515Y-11242936D02*
X21388039Y-11252460D01*
X21388039Y-11252460D02*
X21378515Y-11261984D01*
X21378515Y-11261984D02*
X21368991Y-11252460D01*
X21368991Y-11252460D02*
X21378515Y-11242936D01*
X21378515Y-11242936D02*
X21378515Y-11261984D01*
X21511848Y-11061984D02*
X21530896Y-11061984D01*
X21530896Y-11061984D02*
X21549944Y-11071508D01*
X21549944Y-11071508D02*
X21559468Y-11081031D01*
X21559468Y-11081031D02*
X21568991Y-11100079D01*
X21568991Y-11100079D02*
X21578515Y-11138174D01*
X21578515Y-11138174D02*
X21578515Y-11185793D01*
X21578515Y-11185793D02*
X21568991Y-11223888D01*
X21568991Y-11223888D02*
X21559468Y-11242936D01*
X21559468Y-11242936D02*
X21549944Y-11252460D01*
X21549944Y-11252460D02*
X21530896Y-11261984D01*
X21530896Y-11261984D02*
X21511848Y-11261984D01*
X21511848Y-11261984D02*
X21492801Y-11252460D01*
X21492801Y-11252460D02*
X21483277Y-11242936D01*
X21483277Y-11242936D02*
X21473753Y-11223888D01*
X21473753Y-11223888D02*
X21464229Y-11185793D01*
X21464229Y-11185793D02*
X21464229Y-11138174D01*
X21464229Y-11138174D02*
X21473753Y-11100079D01*
X21473753Y-11100079D02*
X21483277Y-11081031D01*
X21483277Y-11081031D02*
X21492801Y-11071508D01*
X21492801Y-11071508D02*
X21511848Y-11061984D01*
X21645182Y-11061984D02*
X21768991Y-11061984D01*
X21768991Y-11061984D02*
X21702325Y-11138174D01*
X21702325Y-11138174D02*
X21730896Y-11138174D01*
X21730896Y-11138174D02*
X21749944Y-11147698D01*
X21749944Y-11147698D02*
X21759468Y-11157222D01*
X21759468Y-11157222D02*
X21768991Y-11176270D01*
X21768991Y-11176270D02*
X21768991Y-11223888D01*
X21768991Y-11223888D02*
X21759468Y-11242936D01*
X21759468Y-11242936D02*
X21749944Y-11252460D01*
X21749944Y-11252460D02*
X21730896Y-11261984D01*
X21730896Y-11261984D02*
X21673753Y-11261984D01*
X21673753Y-11261984D02*
X21654706Y-11252460D01*
X21654706Y-11252460D02*
X21645182Y-11242936D01*
X21864229Y-11261984D02*
X21902325Y-11261984D01*
X21902325Y-11261984D02*
X21921372Y-11252460D01*
X21921372Y-11252460D02*
X21930896Y-11242936D01*
X21930896Y-11242936D02*
X21949944Y-11214365D01*
X21949944Y-11214365D02*
X21959468Y-11176270D01*
X21959468Y-11176270D02*
X21959468Y-11100079D01*
X21959468Y-11100079D02*
X21949944Y-11081031D01*
X21949944Y-11081031D02*
X21940420Y-11071508D01*
X21940420Y-11071508D02*
X21921372Y-11061984D01*
X21921372Y-11061984D02*
X21883277Y-11061984D01*
X21883277Y-11061984D02*
X21864229Y-11071508D01*
X21864229Y-11071508D02*
X21854706Y-11081031D01*
X21854706Y-11081031D02*
X21845182Y-11100079D01*
X21845182Y-11100079D02*
X21845182Y-11147698D01*
X21845182Y-11147698D02*
X21854706Y-11166746D01*
X21854706Y-11166746D02*
X21864229Y-11176270D01*
X21864229Y-11176270D02*
X21883277Y-11185793D01*
X21883277Y-11185793D02*
X21921372Y-11185793D01*
X21921372Y-11185793D02*
X21940420Y-11176270D01*
X21940420Y-11176270D02*
X21949944Y-11166746D01*
X21949944Y-11166746D02*
X21959468Y-11147698D01*
X22130896Y-11128650D02*
X22130896Y-11261984D01*
X22083277Y-11052460D02*
X22035658Y-11195317D01*
X22035658Y-11195317D02*
X22159468Y-11195317D01*
X22226134Y-11061984D02*
X22226134Y-11100079D01*
X22302325Y-11061984D02*
X22302325Y-11100079D01*
X22597563Y-11338174D02*
X22588039Y-11328650D01*
X22588039Y-11328650D02*
X22568991Y-11300079D01*
X22568991Y-11300079D02*
X22559468Y-11281031D01*
X22559468Y-11281031D02*
X22549944Y-11252460D01*
X22549944Y-11252460D02*
X22540420Y-11204841D01*
X22540420Y-11204841D02*
X22540420Y-11166746D01*
X22540420Y-11166746D02*
X22549944Y-11119127D01*
X22549944Y-11119127D02*
X22559468Y-11090555D01*
X22559468Y-11090555D02*
X22568991Y-11071508D01*
X22568991Y-11071508D02*
X22588039Y-11042936D01*
X22588039Y-11042936D02*
X22597563Y-11033412D01*
X22778515Y-11261984D02*
X22664229Y-11261984D01*
X22721372Y-11261984D02*
X22721372Y-11061984D01*
X22721372Y-11061984D02*
X22702325Y-11090555D01*
X22702325Y-11090555D02*
X22683277Y-11109603D01*
X22683277Y-11109603D02*
X22664229Y-11119127D01*
X22845182Y-11061984D02*
X22978515Y-11061984D01*
X22978515Y-11061984D02*
X22892801Y-11261984D01*
X23207087Y-11261984D02*
X23207087Y-11061984D01*
X23292801Y-11261984D02*
X23292801Y-11157222D01*
X23292801Y-11157222D02*
X23283277Y-11138174D01*
X23283277Y-11138174D02*
X23264230Y-11128650D01*
X23264230Y-11128650D02*
X23235658Y-11128650D01*
X23235658Y-11128650D02*
X23216610Y-11138174D01*
X23216610Y-11138174D02*
X23207087Y-11147698D01*
X23416610Y-11261984D02*
X23397563Y-11252460D01*
X23397563Y-11252460D02*
X23388039Y-11242936D01*
X23388039Y-11242936D02*
X23378515Y-11223888D01*
X23378515Y-11223888D02*
X23378515Y-11166746D01*
X23378515Y-11166746D02*
X23388039Y-11147698D01*
X23388039Y-11147698D02*
X23397563Y-11138174D01*
X23397563Y-11138174D02*
X23416610Y-11128650D01*
X23416610Y-11128650D02*
X23445182Y-11128650D01*
X23445182Y-11128650D02*
X23464230Y-11138174D01*
X23464230Y-11138174D02*
X23473753Y-11147698D01*
X23473753Y-11147698D02*
X23483277Y-11166746D01*
X23483277Y-11166746D02*
X23483277Y-11223888D01*
X23483277Y-11223888D02*
X23473753Y-11242936D01*
X23473753Y-11242936D02*
X23464230Y-11252460D01*
X23464230Y-11252460D02*
X23445182Y-11261984D01*
X23445182Y-11261984D02*
X23416610Y-11261984D01*
X23597563Y-11261984D02*
X23578515Y-11252460D01*
X23578515Y-11252460D02*
X23568991Y-11233412D01*
X23568991Y-11233412D02*
X23568991Y-11061984D01*
X23749944Y-11252460D02*
X23730896Y-11261984D01*
X23730896Y-11261984D02*
X23692801Y-11261984D01*
X23692801Y-11261984D02*
X23673753Y-11252460D01*
X23673753Y-11252460D02*
X23664230Y-11233412D01*
X23664230Y-11233412D02*
X23664230Y-11157222D01*
X23664230Y-11157222D02*
X23673753Y-11138174D01*
X23673753Y-11138174D02*
X23692801Y-11128650D01*
X23692801Y-11128650D02*
X23730896Y-11128650D01*
X23730896Y-11128650D02*
X23749944Y-11138174D01*
X23749944Y-11138174D02*
X23759468Y-11157222D01*
X23759468Y-11157222D02*
X23759468Y-11176270D01*
X23759468Y-11176270D02*
X23664230Y-11195317D01*
X23835658Y-11252460D02*
X23854706Y-11261984D01*
X23854706Y-11261984D02*
X23892801Y-11261984D01*
X23892801Y-11261984D02*
X23911849Y-11252460D01*
X23911849Y-11252460D02*
X23921372Y-11233412D01*
X23921372Y-11233412D02*
X23921372Y-11223888D01*
X23921372Y-11223888D02*
X23911849Y-11204841D01*
X23911849Y-11204841D02*
X23892801Y-11195317D01*
X23892801Y-11195317D02*
X23864230Y-11195317D01*
X23864230Y-11195317D02*
X23845182Y-11185793D01*
X23845182Y-11185793D02*
X23835658Y-11166746D01*
X23835658Y-11166746D02*
X23835658Y-11157222D01*
X23835658Y-11157222D02*
X23845182Y-11138174D01*
X23845182Y-11138174D02*
X23864230Y-11128650D01*
X23864230Y-11128650D02*
X23892801Y-11128650D01*
X23892801Y-11128650D02*
X23911849Y-11138174D01*
X23988039Y-11338174D02*
X23997563Y-11328650D01*
X23997563Y-11328650D02*
X24016611Y-11300079D01*
X24016611Y-11300079D02*
X24026134Y-11281031D01*
X24026134Y-11281031D02*
X24035658Y-11252460D01*
X24035658Y-11252460D02*
X24045182Y-11204841D01*
X24045182Y-11204841D02*
X24045182Y-11166746D01*
X24045182Y-11166746D02*
X24035658Y-11119127D01*
X24035658Y-11119127D02*
X24026134Y-11090555D01*
X24026134Y-11090555D02*
X24016611Y-11071508D01*
X24016611Y-11071508D02*
X23997563Y-11042936D01*
X23997563Y-11042936D02*
X23988039Y-11033412D01*
M02*
