%TF.GenerationSoftware,KiCad,Pcbnew,9.0.3*%
%TF.CreationDate,2025-08-21T23:57:35+02:00*%
%TF.ProjectId,20250807_updi,32303235-3038-4303-975f-757064692e6b,rev?*%
%TF.SameCoordinates,Original*%
%TF.FileFunction,Drillmap*%
%TF.FilePolarity,Positive*%
%FSLAX45Y45*%
G04 Gerber Fmt 4.5, Leading zero omitted, Abs format (unit mm)*
G04 Created by KiCad (PCBNEW 9.0.3) date 2025-08-21 23:57:35*
%MOMM*%
%LPD*%
G01*
G04 APERTURE LIST*
%ADD10C,0.050000*%
%ADD11C,0.200000*%
%ADD12C,0.100000*%
G04 APERTURE END LIST*
D10*
X19125000Y-10000000D02*
G75*
G02*
X19025000Y-9900000I0J100000D01*
G01*
X19025000Y-8100000D02*
X19025000Y-9900000D01*
X19025000Y-8100000D02*
G75*
G02*
X19125000Y-8000000I100000J0D01*
G01*
X24325000Y-8100000D02*
X24325000Y-9900000D01*
X24325000Y-9900000D02*
G75*
G02*
X24225000Y-10000000I-100000J0D01*
G01*
X19125000Y-10000000D02*
X24225000Y-10000000D01*
X19125000Y-8000000D02*
X24225000Y-8000000D01*
X24225000Y-8000000D02*
G75*
G02*
X24325000Y-8100000I0J-100000D01*
G01*
D11*
D12*
X20310500Y-8597500D02*
X20375500Y-8662500D01*
X20375500Y-8597500D02*
X20310500Y-8662500D01*
X20888500Y-8597500D02*
X20953500Y-8662500D01*
X20953500Y-8597500D02*
X20888500Y-8662500D01*
D11*
X19283277Y-10313984D02*
X19283277Y-10113984D01*
X19283277Y-10113984D02*
X19330896Y-10113984D01*
X19330896Y-10113984D02*
X19359467Y-10123508D01*
X19359467Y-10123508D02*
X19378515Y-10142555D01*
X19378515Y-10142555D02*
X19388039Y-10161603D01*
X19388039Y-10161603D02*
X19397563Y-10199698D01*
X19397563Y-10199698D02*
X19397563Y-10228270D01*
X19397563Y-10228270D02*
X19388039Y-10266365D01*
X19388039Y-10266365D02*
X19378515Y-10285412D01*
X19378515Y-10285412D02*
X19359467Y-10304460D01*
X19359467Y-10304460D02*
X19330896Y-10313984D01*
X19330896Y-10313984D02*
X19283277Y-10313984D01*
X19483277Y-10313984D02*
X19483277Y-10180650D01*
X19483277Y-10218746D02*
X19492801Y-10199698D01*
X19492801Y-10199698D02*
X19502324Y-10190174D01*
X19502324Y-10190174D02*
X19521372Y-10180650D01*
X19521372Y-10180650D02*
X19540420Y-10180650D01*
X19607086Y-10313984D02*
X19607086Y-10180650D01*
X19607086Y-10113984D02*
X19597563Y-10123508D01*
X19597563Y-10123508D02*
X19607086Y-10133031D01*
X19607086Y-10133031D02*
X19616610Y-10123508D01*
X19616610Y-10123508D02*
X19607086Y-10113984D01*
X19607086Y-10113984D02*
X19607086Y-10133031D01*
X19730896Y-10313984D02*
X19711848Y-10304460D01*
X19711848Y-10304460D02*
X19702324Y-10285412D01*
X19702324Y-10285412D02*
X19702324Y-10113984D01*
X19835658Y-10313984D02*
X19816610Y-10304460D01*
X19816610Y-10304460D02*
X19807086Y-10285412D01*
X19807086Y-10285412D02*
X19807086Y-10113984D01*
X20064229Y-10313984D02*
X20064229Y-10113984D01*
X20064229Y-10113984D02*
X20130896Y-10256841D01*
X20130896Y-10256841D02*
X20197563Y-10113984D01*
X20197563Y-10113984D02*
X20197563Y-10313984D01*
X20378515Y-10313984D02*
X20378515Y-10209222D01*
X20378515Y-10209222D02*
X20368991Y-10190174D01*
X20368991Y-10190174D02*
X20349944Y-10180650D01*
X20349944Y-10180650D02*
X20311848Y-10180650D01*
X20311848Y-10180650D02*
X20292801Y-10190174D01*
X20378515Y-10304460D02*
X20359467Y-10313984D01*
X20359467Y-10313984D02*
X20311848Y-10313984D01*
X20311848Y-10313984D02*
X20292801Y-10304460D01*
X20292801Y-10304460D02*
X20283277Y-10285412D01*
X20283277Y-10285412D02*
X20283277Y-10266365D01*
X20283277Y-10266365D02*
X20292801Y-10247317D01*
X20292801Y-10247317D02*
X20311848Y-10237793D01*
X20311848Y-10237793D02*
X20359467Y-10237793D01*
X20359467Y-10237793D02*
X20378515Y-10228270D01*
X20473753Y-10180650D02*
X20473753Y-10380650D01*
X20473753Y-10190174D02*
X20492801Y-10180650D01*
X20492801Y-10180650D02*
X20530896Y-10180650D01*
X20530896Y-10180650D02*
X20549944Y-10190174D01*
X20549944Y-10190174D02*
X20559467Y-10199698D01*
X20559467Y-10199698D02*
X20568991Y-10218746D01*
X20568991Y-10218746D02*
X20568991Y-10275889D01*
X20568991Y-10275889D02*
X20559467Y-10294936D01*
X20559467Y-10294936D02*
X20549944Y-10304460D01*
X20549944Y-10304460D02*
X20530896Y-10313984D01*
X20530896Y-10313984D02*
X20492801Y-10313984D01*
X20492801Y-10313984D02*
X20473753Y-10304460D01*
X20654705Y-10294936D02*
X20664229Y-10304460D01*
X20664229Y-10304460D02*
X20654705Y-10313984D01*
X20654705Y-10313984D02*
X20645182Y-10304460D01*
X20645182Y-10304460D02*
X20654705Y-10294936D01*
X20654705Y-10294936D02*
X20654705Y-10313984D01*
X20654705Y-10190174D02*
X20664229Y-10199698D01*
X20664229Y-10199698D02*
X20654705Y-10209222D01*
X20654705Y-10209222D02*
X20645182Y-10199698D01*
X20645182Y-10199698D02*
X20654705Y-10190174D01*
X20654705Y-10190174D02*
X20654705Y-10209222D01*
D12*
X18957500Y-10610000D02*
X19022500Y-10675000D01*
X19022500Y-10610000D02*
X18957500Y-10675000D01*
D11*
X19321372Y-10533984D02*
X19340420Y-10533984D01*
X19340420Y-10533984D02*
X19359467Y-10543508D01*
X19359467Y-10543508D02*
X19368991Y-10553031D01*
X19368991Y-10553031D02*
X19378515Y-10572079D01*
X19378515Y-10572079D02*
X19388039Y-10610174D01*
X19388039Y-10610174D02*
X19388039Y-10657793D01*
X19388039Y-10657793D02*
X19378515Y-10695889D01*
X19378515Y-10695889D02*
X19368991Y-10714936D01*
X19368991Y-10714936D02*
X19359467Y-10724460D01*
X19359467Y-10724460D02*
X19340420Y-10733984D01*
X19340420Y-10733984D02*
X19321372Y-10733984D01*
X19321372Y-10733984D02*
X19302324Y-10724460D01*
X19302324Y-10724460D02*
X19292801Y-10714936D01*
X19292801Y-10714936D02*
X19283277Y-10695889D01*
X19283277Y-10695889D02*
X19273753Y-10657793D01*
X19273753Y-10657793D02*
X19273753Y-10610174D01*
X19273753Y-10610174D02*
X19283277Y-10572079D01*
X19283277Y-10572079D02*
X19292801Y-10553031D01*
X19292801Y-10553031D02*
X19302324Y-10543508D01*
X19302324Y-10543508D02*
X19321372Y-10533984D01*
X19473753Y-10714936D02*
X19483277Y-10724460D01*
X19483277Y-10724460D02*
X19473753Y-10733984D01*
X19473753Y-10733984D02*
X19464229Y-10724460D01*
X19464229Y-10724460D02*
X19473753Y-10714936D01*
X19473753Y-10714936D02*
X19473753Y-10733984D01*
X19654705Y-10533984D02*
X19616610Y-10533984D01*
X19616610Y-10533984D02*
X19597563Y-10543508D01*
X19597563Y-10543508D02*
X19588039Y-10553031D01*
X19588039Y-10553031D02*
X19568991Y-10581603D01*
X19568991Y-10581603D02*
X19559467Y-10619698D01*
X19559467Y-10619698D02*
X19559467Y-10695889D01*
X19559467Y-10695889D02*
X19568991Y-10714936D01*
X19568991Y-10714936D02*
X19578515Y-10724460D01*
X19578515Y-10724460D02*
X19597563Y-10733984D01*
X19597563Y-10733984D02*
X19635658Y-10733984D01*
X19635658Y-10733984D02*
X19654705Y-10724460D01*
X19654705Y-10724460D02*
X19664229Y-10714936D01*
X19664229Y-10714936D02*
X19673753Y-10695889D01*
X19673753Y-10695889D02*
X19673753Y-10648270D01*
X19673753Y-10648270D02*
X19664229Y-10629222D01*
X19664229Y-10629222D02*
X19654705Y-10619698D01*
X19654705Y-10619698D02*
X19635658Y-10610174D01*
X19635658Y-10610174D02*
X19597563Y-10610174D01*
X19597563Y-10610174D02*
X19578515Y-10619698D01*
X19578515Y-10619698D02*
X19568991Y-10629222D01*
X19568991Y-10629222D02*
X19559467Y-10648270D01*
X19854705Y-10533984D02*
X19759467Y-10533984D01*
X19759467Y-10533984D02*
X19749944Y-10629222D01*
X19749944Y-10629222D02*
X19759467Y-10619698D01*
X19759467Y-10619698D02*
X19778515Y-10610174D01*
X19778515Y-10610174D02*
X19826134Y-10610174D01*
X19826134Y-10610174D02*
X19845182Y-10619698D01*
X19845182Y-10619698D02*
X19854705Y-10629222D01*
X19854705Y-10629222D02*
X19864229Y-10648270D01*
X19864229Y-10648270D02*
X19864229Y-10695889D01*
X19864229Y-10695889D02*
X19854705Y-10714936D01*
X19854705Y-10714936D02*
X19845182Y-10724460D01*
X19845182Y-10724460D02*
X19826134Y-10733984D01*
X19826134Y-10733984D02*
X19778515Y-10733984D01*
X19778515Y-10733984D02*
X19759467Y-10724460D01*
X19759467Y-10724460D02*
X19749944Y-10714936D01*
X19988039Y-10533984D02*
X20007086Y-10533984D01*
X20007086Y-10533984D02*
X20026134Y-10543508D01*
X20026134Y-10543508D02*
X20035658Y-10553031D01*
X20035658Y-10553031D02*
X20045182Y-10572079D01*
X20045182Y-10572079D02*
X20054705Y-10610174D01*
X20054705Y-10610174D02*
X20054705Y-10657793D01*
X20054705Y-10657793D02*
X20045182Y-10695889D01*
X20045182Y-10695889D02*
X20035658Y-10714936D01*
X20035658Y-10714936D02*
X20026134Y-10724460D01*
X20026134Y-10724460D02*
X20007086Y-10733984D01*
X20007086Y-10733984D02*
X19988039Y-10733984D01*
X19988039Y-10733984D02*
X19968991Y-10724460D01*
X19968991Y-10724460D02*
X19959467Y-10714936D01*
X19959467Y-10714936D02*
X19949944Y-10695889D01*
X19949944Y-10695889D02*
X19940420Y-10657793D01*
X19940420Y-10657793D02*
X19940420Y-10610174D01*
X19940420Y-10610174D02*
X19949944Y-10572079D01*
X19949944Y-10572079D02*
X19959467Y-10553031D01*
X19959467Y-10553031D02*
X19968991Y-10543508D01*
X19968991Y-10543508D02*
X19988039Y-10533984D01*
X20140420Y-10733984D02*
X20140420Y-10600650D01*
X20140420Y-10619698D02*
X20149944Y-10610174D01*
X20149944Y-10610174D02*
X20168991Y-10600650D01*
X20168991Y-10600650D02*
X20197563Y-10600650D01*
X20197563Y-10600650D02*
X20216610Y-10610174D01*
X20216610Y-10610174D02*
X20226134Y-10629222D01*
X20226134Y-10629222D02*
X20226134Y-10733984D01*
X20226134Y-10629222D02*
X20235658Y-10610174D01*
X20235658Y-10610174D02*
X20254705Y-10600650D01*
X20254705Y-10600650D02*
X20283277Y-10600650D01*
X20283277Y-10600650D02*
X20302325Y-10610174D01*
X20302325Y-10610174D02*
X20311848Y-10629222D01*
X20311848Y-10629222D02*
X20311848Y-10733984D01*
X20407086Y-10733984D02*
X20407086Y-10600650D01*
X20407086Y-10619698D02*
X20416610Y-10610174D01*
X20416610Y-10610174D02*
X20435658Y-10600650D01*
X20435658Y-10600650D02*
X20464229Y-10600650D01*
X20464229Y-10600650D02*
X20483277Y-10610174D01*
X20483277Y-10610174D02*
X20492801Y-10629222D01*
X20492801Y-10629222D02*
X20492801Y-10733984D01*
X20492801Y-10629222D02*
X20502325Y-10610174D01*
X20502325Y-10610174D02*
X20521372Y-10600650D01*
X20521372Y-10600650D02*
X20549944Y-10600650D01*
X20549944Y-10600650D02*
X20568991Y-10610174D01*
X20568991Y-10610174D02*
X20578515Y-10629222D01*
X20578515Y-10629222D02*
X20578515Y-10733984D01*
X20968991Y-10524460D02*
X20797563Y-10781603D01*
X21226134Y-10533984D02*
X21245182Y-10533984D01*
X21245182Y-10533984D02*
X21264229Y-10543508D01*
X21264229Y-10543508D02*
X21273753Y-10553031D01*
X21273753Y-10553031D02*
X21283277Y-10572079D01*
X21283277Y-10572079D02*
X21292801Y-10610174D01*
X21292801Y-10610174D02*
X21292801Y-10657793D01*
X21292801Y-10657793D02*
X21283277Y-10695889D01*
X21283277Y-10695889D02*
X21273753Y-10714936D01*
X21273753Y-10714936D02*
X21264229Y-10724460D01*
X21264229Y-10724460D02*
X21245182Y-10733984D01*
X21245182Y-10733984D02*
X21226134Y-10733984D01*
X21226134Y-10733984D02*
X21207087Y-10724460D01*
X21207087Y-10724460D02*
X21197563Y-10714936D01*
X21197563Y-10714936D02*
X21188039Y-10695889D01*
X21188039Y-10695889D02*
X21178515Y-10657793D01*
X21178515Y-10657793D02*
X21178515Y-10610174D01*
X21178515Y-10610174D02*
X21188039Y-10572079D01*
X21188039Y-10572079D02*
X21197563Y-10553031D01*
X21197563Y-10553031D02*
X21207087Y-10543508D01*
X21207087Y-10543508D02*
X21226134Y-10533984D01*
X21378515Y-10714936D02*
X21388039Y-10724460D01*
X21388039Y-10724460D02*
X21378515Y-10733984D01*
X21378515Y-10733984D02*
X21368991Y-10724460D01*
X21368991Y-10724460D02*
X21378515Y-10714936D01*
X21378515Y-10714936D02*
X21378515Y-10733984D01*
X21511848Y-10533984D02*
X21530896Y-10533984D01*
X21530896Y-10533984D02*
X21549944Y-10543508D01*
X21549944Y-10543508D02*
X21559468Y-10553031D01*
X21559468Y-10553031D02*
X21568991Y-10572079D01*
X21568991Y-10572079D02*
X21578515Y-10610174D01*
X21578515Y-10610174D02*
X21578515Y-10657793D01*
X21578515Y-10657793D02*
X21568991Y-10695889D01*
X21568991Y-10695889D02*
X21559468Y-10714936D01*
X21559468Y-10714936D02*
X21549944Y-10724460D01*
X21549944Y-10724460D02*
X21530896Y-10733984D01*
X21530896Y-10733984D02*
X21511848Y-10733984D01*
X21511848Y-10733984D02*
X21492801Y-10724460D01*
X21492801Y-10724460D02*
X21483277Y-10714936D01*
X21483277Y-10714936D02*
X21473753Y-10695889D01*
X21473753Y-10695889D02*
X21464229Y-10657793D01*
X21464229Y-10657793D02*
X21464229Y-10610174D01*
X21464229Y-10610174D02*
X21473753Y-10572079D01*
X21473753Y-10572079D02*
X21483277Y-10553031D01*
X21483277Y-10553031D02*
X21492801Y-10543508D01*
X21492801Y-10543508D02*
X21511848Y-10533984D01*
X21654706Y-10553031D02*
X21664229Y-10543508D01*
X21664229Y-10543508D02*
X21683277Y-10533984D01*
X21683277Y-10533984D02*
X21730896Y-10533984D01*
X21730896Y-10533984D02*
X21749944Y-10543508D01*
X21749944Y-10543508D02*
X21759468Y-10553031D01*
X21759468Y-10553031D02*
X21768991Y-10572079D01*
X21768991Y-10572079D02*
X21768991Y-10591127D01*
X21768991Y-10591127D02*
X21759468Y-10619698D01*
X21759468Y-10619698D02*
X21645182Y-10733984D01*
X21645182Y-10733984D02*
X21768991Y-10733984D01*
X21949944Y-10533984D02*
X21854706Y-10533984D01*
X21854706Y-10533984D02*
X21845182Y-10629222D01*
X21845182Y-10629222D02*
X21854706Y-10619698D01*
X21854706Y-10619698D02*
X21873753Y-10610174D01*
X21873753Y-10610174D02*
X21921372Y-10610174D01*
X21921372Y-10610174D02*
X21940420Y-10619698D01*
X21940420Y-10619698D02*
X21949944Y-10629222D01*
X21949944Y-10629222D02*
X21959468Y-10648270D01*
X21959468Y-10648270D02*
X21959468Y-10695889D01*
X21959468Y-10695889D02*
X21949944Y-10714936D01*
X21949944Y-10714936D02*
X21940420Y-10724460D01*
X21940420Y-10724460D02*
X21921372Y-10733984D01*
X21921372Y-10733984D02*
X21873753Y-10733984D01*
X21873753Y-10733984D02*
X21854706Y-10724460D01*
X21854706Y-10724460D02*
X21845182Y-10714936D01*
X22130896Y-10533984D02*
X22092801Y-10533984D01*
X22092801Y-10533984D02*
X22073753Y-10543508D01*
X22073753Y-10543508D02*
X22064229Y-10553031D01*
X22064229Y-10553031D02*
X22045182Y-10581603D01*
X22045182Y-10581603D02*
X22035658Y-10619698D01*
X22035658Y-10619698D02*
X22035658Y-10695889D01*
X22035658Y-10695889D02*
X22045182Y-10714936D01*
X22045182Y-10714936D02*
X22054706Y-10724460D01*
X22054706Y-10724460D02*
X22073753Y-10733984D01*
X22073753Y-10733984D02*
X22111849Y-10733984D01*
X22111849Y-10733984D02*
X22130896Y-10724460D01*
X22130896Y-10724460D02*
X22140420Y-10714936D01*
X22140420Y-10714936D02*
X22149944Y-10695889D01*
X22149944Y-10695889D02*
X22149944Y-10648270D01*
X22149944Y-10648270D02*
X22140420Y-10629222D01*
X22140420Y-10629222D02*
X22130896Y-10619698D01*
X22130896Y-10619698D02*
X22111849Y-10610174D01*
X22111849Y-10610174D02*
X22073753Y-10610174D01*
X22073753Y-10610174D02*
X22054706Y-10619698D01*
X22054706Y-10619698D02*
X22045182Y-10629222D01*
X22045182Y-10629222D02*
X22035658Y-10648270D01*
X22226134Y-10533984D02*
X22226134Y-10572079D01*
X22302325Y-10533984D02*
X22302325Y-10572079D01*
X22597563Y-10810174D02*
X22588039Y-10800650D01*
X22588039Y-10800650D02*
X22568991Y-10772079D01*
X22568991Y-10772079D02*
X22559468Y-10753031D01*
X22559468Y-10753031D02*
X22549944Y-10724460D01*
X22549944Y-10724460D02*
X22540420Y-10676841D01*
X22540420Y-10676841D02*
X22540420Y-10638746D01*
X22540420Y-10638746D02*
X22549944Y-10591127D01*
X22549944Y-10591127D02*
X22559468Y-10562555D01*
X22559468Y-10562555D02*
X22568991Y-10543508D01*
X22568991Y-10543508D02*
X22588039Y-10514936D01*
X22588039Y-10514936D02*
X22597563Y-10505412D01*
X22664229Y-10553031D02*
X22673753Y-10543508D01*
X22673753Y-10543508D02*
X22692801Y-10533984D01*
X22692801Y-10533984D02*
X22740420Y-10533984D01*
X22740420Y-10533984D02*
X22759468Y-10543508D01*
X22759468Y-10543508D02*
X22768991Y-10553031D01*
X22768991Y-10553031D02*
X22778515Y-10572079D01*
X22778515Y-10572079D02*
X22778515Y-10591127D01*
X22778515Y-10591127D02*
X22768991Y-10619698D01*
X22768991Y-10619698D02*
X22654706Y-10733984D01*
X22654706Y-10733984D02*
X22778515Y-10733984D01*
X23016610Y-10733984D02*
X23016610Y-10533984D01*
X23102325Y-10733984D02*
X23102325Y-10629222D01*
X23102325Y-10629222D02*
X23092801Y-10610174D01*
X23092801Y-10610174D02*
X23073753Y-10600650D01*
X23073753Y-10600650D02*
X23045182Y-10600650D01*
X23045182Y-10600650D02*
X23026134Y-10610174D01*
X23026134Y-10610174D02*
X23016610Y-10619698D01*
X23226134Y-10733984D02*
X23207087Y-10724460D01*
X23207087Y-10724460D02*
X23197563Y-10714936D01*
X23197563Y-10714936D02*
X23188039Y-10695889D01*
X23188039Y-10695889D02*
X23188039Y-10638746D01*
X23188039Y-10638746D02*
X23197563Y-10619698D01*
X23197563Y-10619698D02*
X23207087Y-10610174D01*
X23207087Y-10610174D02*
X23226134Y-10600650D01*
X23226134Y-10600650D02*
X23254706Y-10600650D01*
X23254706Y-10600650D02*
X23273753Y-10610174D01*
X23273753Y-10610174D02*
X23283277Y-10619698D01*
X23283277Y-10619698D02*
X23292801Y-10638746D01*
X23292801Y-10638746D02*
X23292801Y-10695889D01*
X23292801Y-10695889D02*
X23283277Y-10714936D01*
X23283277Y-10714936D02*
X23273753Y-10724460D01*
X23273753Y-10724460D02*
X23254706Y-10733984D01*
X23254706Y-10733984D02*
X23226134Y-10733984D01*
X23407087Y-10733984D02*
X23388039Y-10724460D01*
X23388039Y-10724460D02*
X23378515Y-10705412D01*
X23378515Y-10705412D02*
X23378515Y-10533984D01*
X23559468Y-10724460D02*
X23540420Y-10733984D01*
X23540420Y-10733984D02*
X23502325Y-10733984D01*
X23502325Y-10733984D02*
X23483277Y-10724460D01*
X23483277Y-10724460D02*
X23473753Y-10705412D01*
X23473753Y-10705412D02*
X23473753Y-10629222D01*
X23473753Y-10629222D02*
X23483277Y-10610174D01*
X23483277Y-10610174D02*
X23502325Y-10600650D01*
X23502325Y-10600650D02*
X23540420Y-10600650D01*
X23540420Y-10600650D02*
X23559468Y-10610174D01*
X23559468Y-10610174D02*
X23568991Y-10629222D01*
X23568991Y-10629222D02*
X23568991Y-10648270D01*
X23568991Y-10648270D02*
X23473753Y-10667317D01*
X23645182Y-10724460D02*
X23664230Y-10733984D01*
X23664230Y-10733984D02*
X23702325Y-10733984D01*
X23702325Y-10733984D02*
X23721372Y-10724460D01*
X23721372Y-10724460D02*
X23730896Y-10705412D01*
X23730896Y-10705412D02*
X23730896Y-10695889D01*
X23730896Y-10695889D02*
X23721372Y-10676841D01*
X23721372Y-10676841D02*
X23702325Y-10667317D01*
X23702325Y-10667317D02*
X23673753Y-10667317D01*
X23673753Y-10667317D02*
X23654706Y-10657793D01*
X23654706Y-10657793D02*
X23645182Y-10638746D01*
X23645182Y-10638746D02*
X23645182Y-10629222D01*
X23645182Y-10629222D02*
X23654706Y-10610174D01*
X23654706Y-10610174D02*
X23673753Y-10600650D01*
X23673753Y-10600650D02*
X23702325Y-10600650D01*
X23702325Y-10600650D02*
X23721372Y-10610174D01*
X23797563Y-10810174D02*
X23807087Y-10800650D01*
X23807087Y-10800650D02*
X23826134Y-10772079D01*
X23826134Y-10772079D02*
X23835658Y-10753031D01*
X23835658Y-10753031D02*
X23845182Y-10724460D01*
X23845182Y-10724460D02*
X23854706Y-10676841D01*
X23854706Y-10676841D02*
X23854706Y-10638746D01*
X23854706Y-10638746D02*
X23845182Y-10591127D01*
X23845182Y-10591127D02*
X23835658Y-10562555D01*
X23835658Y-10562555D02*
X23826134Y-10543508D01*
X23826134Y-10543508D02*
X23807087Y-10514936D01*
X23807087Y-10514936D02*
X23797563Y-10505412D01*
X24159468Y-10810174D02*
X24149944Y-10800650D01*
X24149944Y-10800650D02*
X24130896Y-10772079D01*
X24130896Y-10772079D02*
X24121372Y-10753031D01*
X24121372Y-10753031D02*
X24111849Y-10724460D01*
X24111849Y-10724460D02*
X24102325Y-10676841D01*
X24102325Y-10676841D02*
X24102325Y-10638746D01*
X24102325Y-10638746D02*
X24111849Y-10591127D01*
X24111849Y-10591127D02*
X24121372Y-10562555D01*
X24121372Y-10562555D02*
X24130896Y-10543508D01*
X24130896Y-10543508D02*
X24149944Y-10514936D01*
X24149944Y-10514936D02*
X24159468Y-10505412D01*
X24235658Y-10600650D02*
X24235658Y-10733984D01*
X24235658Y-10619698D02*
X24245182Y-10610174D01*
X24245182Y-10610174D02*
X24264230Y-10600650D01*
X24264230Y-10600650D02*
X24292801Y-10600650D01*
X24292801Y-10600650D02*
X24311849Y-10610174D01*
X24311849Y-10610174D02*
X24321372Y-10629222D01*
X24321372Y-10629222D02*
X24321372Y-10733984D01*
X24445182Y-10733984D02*
X24426134Y-10724460D01*
X24426134Y-10724460D02*
X24416611Y-10714936D01*
X24416611Y-10714936D02*
X24407087Y-10695889D01*
X24407087Y-10695889D02*
X24407087Y-10638746D01*
X24407087Y-10638746D02*
X24416611Y-10619698D01*
X24416611Y-10619698D02*
X24426134Y-10610174D01*
X24426134Y-10610174D02*
X24445182Y-10600650D01*
X24445182Y-10600650D02*
X24473753Y-10600650D01*
X24473753Y-10600650D02*
X24492801Y-10610174D01*
X24492801Y-10610174D02*
X24502325Y-10619698D01*
X24502325Y-10619698D02*
X24511849Y-10638746D01*
X24511849Y-10638746D02*
X24511849Y-10695889D01*
X24511849Y-10695889D02*
X24502325Y-10714936D01*
X24502325Y-10714936D02*
X24492801Y-10724460D01*
X24492801Y-10724460D02*
X24473753Y-10733984D01*
X24473753Y-10733984D02*
X24445182Y-10733984D01*
X24568992Y-10600650D02*
X24645182Y-10600650D01*
X24597563Y-10533984D02*
X24597563Y-10705412D01*
X24597563Y-10705412D02*
X24607087Y-10724460D01*
X24607087Y-10724460D02*
X24626134Y-10733984D01*
X24626134Y-10733984D02*
X24645182Y-10733984D01*
X24864230Y-10600650D02*
X24864230Y-10800650D01*
X24864230Y-10610174D02*
X24883277Y-10600650D01*
X24883277Y-10600650D02*
X24921373Y-10600650D01*
X24921373Y-10600650D02*
X24940420Y-10610174D01*
X24940420Y-10610174D02*
X24949944Y-10619698D01*
X24949944Y-10619698D02*
X24959468Y-10638746D01*
X24959468Y-10638746D02*
X24959468Y-10695889D01*
X24959468Y-10695889D02*
X24949944Y-10714936D01*
X24949944Y-10714936D02*
X24940420Y-10724460D01*
X24940420Y-10724460D02*
X24921373Y-10733984D01*
X24921373Y-10733984D02*
X24883277Y-10733984D01*
X24883277Y-10733984D02*
X24864230Y-10724460D01*
X25073753Y-10733984D02*
X25054706Y-10724460D01*
X25054706Y-10724460D02*
X25045182Y-10705412D01*
X25045182Y-10705412D02*
X25045182Y-10533984D01*
X25235658Y-10733984D02*
X25235658Y-10629222D01*
X25235658Y-10629222D02*
X25226134Y-10610174D01*
X25226134Y-10610174D02*
X25207087Y-10600650D01*
X25207087Y-10600650D02*
X25168992Y-10600650D01*
X25168992Y-10600650D02*
X25149944Y-10610174D01*
X25235658Y-10724460D02*
X25216611Y-10733984D01*
X25216611Y-10733984D02*
X25168992Y-10733984D01*
X25168992Y-10733984D02*
X25149944Y-10724460D01*
X25149944Y-10724460D02*
X25140420Y-10705412D01*
X25140420Y-10705412D02*
X25140420Y-10686365D01*
X25140420Y-10686365D02*
X25149944Y-10667317D01*
X25149944Y-10667317D02*
X25168992Y-10657793D01*
X25168992Y-10657793D02*
X25216611Y-10657793D01*
X25216611Y-10657793D02*
X25235658Y-10648270D01*
X25302325Y-10600650D02*
X25378515Y-10600650D01*
X25330896Y-10533984D02*
X25330896Y-10705412D01*
X25330896Y-10705412D02*
X25340420Y-10724460D01*
X25340420Y-10724460D02*
X25359468Y-10733984D01*
X25359468Y-10733984D02*
X25378515Y-10733984D01*
X25521373Y-10724460D02*
X25502325Y-10733984D01*
X25502325Y-10733984D02*
X25464230Y-10733984D01*
X25464230Y-10733984D02*
X25445182Y-10724460D01*
X25445182Y-10724460D02*
X25435658Y-10705412D01*
X25435658Y-10705412D02*
X25435658Y-10629222D01*
X25435658Y-10629222D02*
X25445182Y-10610174D01*
X25445182Y-10610174D02*
X25464230Y-10600650D01*
X25464230Y-10600650D02*
X25502325Y-10600650D01*
X25502325Y-10600650D02*
X25521373Y-10610174D01*
X25521373Y-10610174D02*
X25530896Y-10629222D01*
X25530896Y-10629222D02*
X25530896Y-10648270D01*
X25530896Y-10648270D02*
X25435658Y-10667317D01*
X25702325Y-10733984D02*
X25702325Y-10533984D01*
X25702325Y-10724460D02*
X25683277Y-10733984D01*
X25683277Y-10733984D02*
X25645182Y-10733984D01*
X25645182Y-10733984D02*
X25626134Y-10724460D01*
X25626134Y-10724460D02*
X25616611Y-10714936D01*
X25616611Y-10714936D02*
X25607087Y-10695889D01*
X25607087Y-10695889D02*
X25607087Y-10638746D01*
X25607087Y-10638746D02*
X25616611Y-10619698D01*
X25616611Y-10619698D02*
X25626134Y-10610174D01*
X25626134Y-10610174D02*
X25645182Y-10600650D01*
X25645182Y-10600650D02*
X25683277Y-10600650D01*
X25683277Y-10600650D02*
X25702325Y-10610174D01*
X25778515Y-10810174D02*
X25788039Y-10800650D01*
X25788039Y-10800650D02*
X25807087Y-10772079D01*
X25807087Y-10772079D02*
X25816611Y-10753031D01*
X25816611Y-10753031D02*
X25826134Y-10724460D01*
X25826134Y-10724460D02*
X25835658Y-10676841D01*
X25835658Y-10676841D02*
X25835658Y-10638746D01*
X25835658Y-10638746D02*
X25826134Y-10591127D01*
X25826134Y-10591127D02*
X25816611Y-10562555D01*
X25816611Y-10562555D02*
X25807087Y-10543508D01*
X25807087Y-10543508D02*
X25788039Y-10514936D01*
X25788039Y-10514936D02*
X25778515Y-10505412D01*
M02*
