M48
; DRILL file {KiCad 9.0.3} date 2025-08-21T23:57:35+0200
; FORMAT={-:-/ absolute / metric / decimal}
; #@! TF.CreationDate,2025-08-21T23:57:35+02:00
; #@! TF.GenerationSoftware,Kicad,Pcbnew,9.0.3
; #@! TF.FileFunction,Plated,1,2,PTH
FMAT,2
METRIC
; #@! TA.AperFunction,Plated,PTH,ViaDrill
T1C0.300
; #@! TA.AperFunction,Plated,PTH,ComponentDrill
T2C0.600
; #@! TA.AperFunction,Plated,PTH,ComponentDrill
T3C1.000
%
G90
G05
T1
X191.4Y-81.2
X191.45Y-91.25
X191.55Y-98.75
X194.55Y-91.15
X203.9Y-88.45
X205.13Y-86.01
X206.55Y-85.99
X207.8Y-99.05
X208.43Y-93.15
X208.7Y-88.5
X210.85Y-96.9
X211.04Y-90.86
X211.68Y-93.77
X214.087Y-91.95
X214.6Y-88.05
X217.0Y-92.45
X217.188Y-89.95
X217.188Y-90.95
X219.69Y-84.6
X219.95Y-82.65
X221.25Y-94.0
X223.6Y-84.2
X223.6Y-88.55
X225.5Y-99.05
X229.8Y-86.05
X229.9Y-97.05
X231.9Y-82.35
X235.1Y-81.8
X236.6Y-90.1
X236.6Y-91.95
X239.4Y-90.1
X239.4Y-91.95
X241.45Y-98.25
T3
X193.0Y-84.0
X193.0Y-94.16
X195.54Y-84.0
X195.54Y-94.16
X199.7Y-96.0
X202.24Y-96.0
X204.78Y-96.0
X217.47Y-96.0
X220.01Y-96.0
X222.55Y-96.0
X226.9Y-91.9
X229.44Y-91.9
X231.98Y-91.9
X238.0Y-84.0
X238.0Y-94.16
X240.54Y-84.0
X240.54Y-94.16
T2
G00X202.0Y-83.02
M15
G01X202.0Y-82.22
M16
G05
G00X202.0Y-87.35
M15
G01X202.0Y-86.25
M16
G05
G00X210.64Y-83.02
M15
G01X210.64Y-82.22
M16
G05
G00X210.64Y-87.35
M15
G01X210.64Y-86.25
M16
G05
M30
